<?xml version="1.0" encoding="UTF-8"?>
<svg id="Capa_2" data-name="Capa 2" xmlns="http://www.w3.org/2000/svg" viewBox="0 0 1300.7 196.54">
  <defs>
    <style>
      .cls-1 {
        fill: none;
        stroke: #003746;
        stroke-miterlimit: 10;
      }

      .cls-2 {
        fill: #ff1b44;
      }
    </style>
  </defs>
  <g id="Capa_1-2" data-name="Capa 1">
    <g>
      <path class="cls-2" d="M.46,196.11h681.44s24.94,0,24.94,0c15.93,0,28.84-12.91,28.84-28.84v-3.93s0-25.31,0-25.31c0-15.66,12.7-28.36,28.36-28.36h536.15s0-1.6,0-1.6v-33.45s0-8.76,0-8.76V0s-185.14,0-185.14,0c-11.14,0-20.16,9.03-20.16,20.16v9.74c0,11.14-9.03,20.16-20.16,20.16h-529.03c-11.14,0-20.16-9.03-20.16-20.17v-9.49c0-11.14-9.03-20.16-20.16-20.16H91.41c-11.14,0-20.16,9.03-20.16,20.16v9.49c0,11.14-9.03,20.16-20.16,20.16H0s.46,146.05.46,146.05Z"/>
      <path class="cls-1" d="M773.85,123.52h526.35v72.52h-526.35c-11.27,0-20.42-9.15-20.42-20.42v-31.67c0-11.27,9.15-20.42,20.42-20.42Z"/>
    </g>
  </g>
</svg>