<?xml version="1.0" encoding="UTF-8"?>
<svg id="Capa_2" data-name="Capa 2" xmlns="http://www.w3.org/2000/svg" viewBox="0 0 1300.7 196.54">
  <defs>
    <style>
      .cls-1 {
        fill: none;
        stroke: #ff1b44;
        stroke-miterlimit: 10;
      }

      .cls-2 {
        fill: #003746;
      }
    </style>
  </defs>
  <g id="Capa_1-2" data-name="Capa 1">
    <g>
      <path class="cls-2" d="M1300.7,146.47h-51.08c-11.14,0-20.16,9.03-20.16,20.16v9.49c0,11.14-9.03,20.16-20.16,20.16h-413.97c-11.14,0-20.16-9.03-20.16-20.16v-9.49c0-11.14-9.03-20.16-20.16-20.16H225.97c-11.14,0-20.16,9.03-20.16,20.16v9.74c0,11.14-9.03,20.16-20.16,20.16H.5v-65.87s0-8.76,0-8.76v-33.45s0-1.6,0-1.6h536.15c15.66,0,28.36-12.7,28.36-28.36v-25.31s0-3.93,0-3.93c0-15.93,12.91-28.84,28.84-28.84h24.94s681.44,0,681.44,0l.46,146.05Z"/>
      <path class="cls-1" d="M20.92.5h526.35v72.52H20.92c-11.27,0-20.42-9.15-20.42-20.42v-31.67C.5,9.65,9.65.5,20.92.5Z" transform="translate(547.78 73.52) rotate(180)"/>
    </g>
  </g>
</svg>