<?xml version="1.0" encoding="UTF-8"?>
<svg id="Capa_2" data-name="Capa 2" xmlns="http://www.w3.org/2000/svg" viewBox="0 0 801 139.78">
  <defs>
    <style>
      .cls-1 {
        fill: #601636;
      }

      .cls-2 {
        fill: #fff;
        stroke: #ff1b44;
        stroke-miterlimit: 10;
      }

      .cls-3 {
        fill: #003746;
      }
    </style>
  </defs>
  <g id="Capa_1-2" data-name="Capa 1">
    <g>
      <g id="_NOPROCESS_S08_03_NB">
        <g>
          <path class="cls-1" d="M18.97,63.24h101.83c10.19,0,18.47,8.28,18.47,18.47v39.1c0,10.19-8.28,18.47-18.47,18.47H18.97c-10.19,0-18.47-8.28-18.47-18.47v-39.1c0-10.19,8.28-18.47,18.47-18.47Z"/>
          <path class="cls-2" d="M782.04,73.97s-.01,0-.02,0h-101.83c-14.69,0-26.64-11.95-26.64-26.64v-28.36c0-10.19-8.29-18.47-18.47-18.47H18.97c-10.19,0-18.47,8.29-18.47,18.47v17.63c0,10.18,8.29,18.47,18.47,18.47h101.83c14.69,0,26.64,11.95,26.64,26.64v39.1c0,10.18,8.29,18.47,18.47,18.47h616.12c10.19,0,18.47-8.29,18.47-18.47v-28.36c0-10.18-8.28-18.46-18.46-18.47Z"/>
          <path class="cls-3" d="M800.5,18.97c0-10.18-8.29-18.47-18.47-18.47h-101.83c-10.19,0-18.47,8.29-18.47,18.47v28.36c0,10.18,8.29,18.47,18.47,18.47h101.83s.01,0,.02,0c10.18,0,18.46-8.29,18.46-18.47v-28.36Z"/>
        </g>
      </g>
      <g>
        <path class="cls-3" d="M260.28,60.09l11.15-33.05c.2-.55.6-.8,1.15-.8h5.4c.55,0,.9.25,1.1.8l11.15,33.05c.25.7-.1,1.15-.8,1.15h-3.8c-.55,0-.95-.3-1.1-.85l-2.25-7.1h-14.15l-2.25,7.1c-.15.55-.55.85-1.1.85h-3.7c-.7,0-1.05-.45-.8-1.15ZM280.83,48.69l-5.55-17.75h-.15l-5.55,17.75h11.25Z"/>
        <path class="cls-3" d="M292.33,48.49c0-7.8,4.85-13.05,12.2-13.05,5.75,0,10,3.3,11.05,8.1.1.7-.3,1.1-.95,1.1h-3.55c-.6,0-1-.3-1.1-.95-.55-3.15-1.75-4.05-5.4-4.05-5.15,0-6.3,1.7-6.3,8.85s1.2,8.85,6.25,8.85c3.7,0,5.05-.9,5.7-4.05.1-.6.45-.9,1.05-.9h3.6c.7,0,1.05.4.9,1-1.2,4.85-5.55,8.15-11.2,8.15-7.4,0-12.25-5.2-12.25-13.05Z"/>
        <path class="cls-3" d="M322.63,52.19v-12.3h-3.6c-.65,0-1-.35-1-1v-2.15c0-.65.35-1,1-1h3.6v-5.45c0-.6.3-.95.9-1.1l3.75-.75c.65-.15,1.1.15,1.1.85v6.45h5.4c.65,0,1,.35,1,1v2.15c0,.65-.35,1-1,1h-5.4v14.5c0,2.7.3,2.95,3.2,2.95h2.15c.65,0,1,.35,1,1v1.75c0,.55-.25.95-.8,1.1-.95.25-2,.35-2.9.35-5.45,0-8.4-3.95-8.4-9.35Z"/>
        <path class="cls-3" d="M338.48,28.49c0-2.6.6-3.15,3.4-3.15s3.5.55,3.5,3.15-.65,3.15-3.5,3.15-3.4-.55-3.4-3.15ZM339.03,60.24v-23.5c0-.65.35-1,1-1h3.8c.65,0,1,.35,1,1v23.5c0,.65-.35,1-1,1h-3.8c-.65,0-1-.35-1-1Z"/>
        <path class="cls-3" d="M357.13,60.44l-8.65-23.55c-.25-.7.1-1.15.8-1.15h4c.55,0,.95.3,1.1.85l6.45,20.4h.2l6.5-20.4c.15-.55.55-.85,1.1-.85h3.75c.7,0,1.1.45.85,1.15l-8.7,23.55c-.2.5-.6.8-1.15.8h-5.1c-.55,0-.95-.25-1.15-.8Z"/>
        <path class="cls-3" d="M376.33,28.49c0-2.6.6-3.15,3.4-3.15s3.5.55,3.5,3.15-.65,3.15-3.5,3.15-3.4-.55-3.4-3.15ZM376.88,60.24v-23.5c0-.65.35-1,1-1h3.8c.65,0,1,.35,1,1v23.5c0,.65-.35,1-1,1h-3.8c-.65,0-1-.35-1-1Z"/>
        <path class="cls-3" d="M386.63,48.49c0-7.8,4.15-13,10.3-13,3.2,0,6.1,1.6,7.75,4.15h.2v-12.4c0-.65.35-1,1-1h3.8c.65,0,1,.35,1,1v33c0,.65-.35,1-1,1h-2.4c-.55,0-.95-.25-1.15-.8l-1-3h-.15c-1.5,2.5-4.6,4.1-8.05,4.1-6.15,0-10.3-5.2-10.3-13.05ZM405.18,48.49c0-7.15-1.3-8.85-6.35-8.85s-6.25,1.7-6.25,8.85,1.25,8.85,6.25,8.85,6.35-1.75,6.35-8.85Z"/>
        <path class="cls-3" d="M415.23,53.89c0-4.9,4.15-7.65,10.4-7.65h4.5c1.1,0,1.5-.4,1.5-1.5v-.25c0-4.2-1.05-4.85-4.75-4.85-3.35,0-4.65.8-5.15,3.4-.15.65-.5.95-1.1.95h-3.45c-.7,0-1.1-.4-.9-1.1,1.2-4.35,5.4-7.45,10.6-7.45,6.35,0,10.5,4.1,10.5,10.25v14.55c0,.65-.35,1-1,1h-2.4c-.55,0-.95-.3-1.1-.85l-1-3.1h-.2c-1.75,2.75-4.55,4.25-8,4.25-4.65,0-8.45-3-8.45-7.65ZM431.63,51.04v-1.15h-6.2c-3.9,0-4.55.75-4.55,3.8s.8,3.8,4.25,3.8c4.5,0,6.5-2,6.5-6.45Z"/>
        <path class="cls-3" d="M440.83,48.49c0-7.8,4.15-13,10.3-13,3.2,0,6.1,1.6,7.75,4.15h.2v-12.4c0-.65.35-1,1-1h3.8c.65,0,1,.35,1,1v33c0,.65-.35,1-1,1h-2.4c-.55,0-.95-.25-1.15-.8l-1-3h-.15c-1.5,2.5-4.6,4.1-8.05,4.1-6.15,0-10.3-5.2-10.3-13.05ZM459.38,48.49c0-7.15-1.3-8.85-6.35-8.85s-6.25,1.7-6.25,8.85,1.25,8.85,6.25,8.85,6.35-1.75,6.35-8.85Z"/>
        <path class="cls-3" d="M479.53,48.49c0-7.8,4.15-13,10.3-13,3.2,0,6.1,1.6,7.75,4.15h.2v-12.4c0-.65.35-1,1-1h3.8c.65,0,1,.35,1,1v33c0,.65-.35,1-1,1h-2.4c-.55,0-.95-.25-1.15-.8l-1-3h-.15c-1.5,2.5-4.6,4.1-8.05,4.1-6.15,0-10.3-5.2-10.3-13.05ZM498.08,48.49c0-7.15-1.3-8.85-6.35-8.85s-6.25,1.7-6.25,8.85,1.25,8.85,6.25,8.85,6.35-1.75,6.35-8.85Z"/>
        <path class="cls-3" d="M507.53,48.49c0-7.85,4.85-13.05,12.3-13.05s12,4.95,12,13.05v.55c0,.65-.35,1-1,1h-17.35c.2,5.85,1.6,7.3,6.25,7.3,3.75,0,5.2-.7,6-3.15.2-.55.55-.85,1.15-.85h3.55c.7,0,1.1.4.85,1-1.65,4.35-5.9,7.2-11.45,7.2-7.45,0-12.3-5.15-12.3-13.05ZM525.98,46.69c-.2-5.55-1.6-7.05-6.25-7.05s-6,1.4-6.2,7.05h12.45Z"/>
        <path class="cls-3" d="M271.13,103.89c0-4.9,4.15-7.65,10.4-7.65h4.5c1.1,0,1.5-.4,1.5-1.5v-.25c0-4.2-1.05-4.85-4.75-4.85-3.35,0-4.65.8-5.15,3.4-.15.65-.5.95-1.1.95h-3.45c-.7,0-1.1-.4-.9-1.1,1.2-4.35,5.4-7.45,10.6-7.45,6.35,0,10.5,4.1,10.5,10.25v14.55c0,.65-.35,1-1,1h-2.4c-.55,0-.95-.3-1.1-.85l-1-3.1h-.2c-1.75,2.75-4.55,4.25-8,4.25-4.65,0-8.45-3-8.45-7.65ZM287.53,101.04v-1.15h-6.2c-3.9,0-4.55.75-4.55,3.8s.8,3.8,4.25,3.8c4.5,0,6.5-2,6.5-6.45Z"/>
        <path class="cls-3" d="M322.33,98.49c0,7.85-4.15,13.05-10.3,13.05-3.2,0-6.1-1.6-7.75-4.2h-.2v12.4c0,.65-.35,1-1,1h-3.8c-.65,0-1-.35-1-1v-33c0-.65.35-1,1-1h2.4c.55,0,.95.25,1.15.8l1,3.05h.15c1.5-2.5,4.6-4.15,8.05-4.15,6.15,0,10.3,5.25,10.3,13.05ZM303.78,98.49c0,7.15,1.3,8.85,6.35,8.85s6.25-1.7,6.25-8.85-1.25-8.85-6.25-8.85-6.35,1.75-6.35,8.85Z"/>
        <path class="cls-3" d="M326.28,110.24v-23.5c0-.65.35-1,1-1h2.4c.55,0,.95.3,1.1.85l1,3.25h.2c1.1-2.35,3.5-4.1,7.65-4.35.7-.05,1.05.3,1.05.95v3.25c0,.65-.35,1-1,1h-2.2c-4.55,0-5.4,1.3-5.4,5.3v14.25c0,.65-.35,1-1,1h-3.8c-.65,0-1-.35-1-1Z"/>
        <path class="cls-3" d="M342.78,98.49c0-7.85,4.85-13.05,12.3-13.05s12,4.95,12,13.05v.55c0,.65-.35,1-1,1h-17.35c.2,5.85,1.6,7.3,6.25,7.3,3.75,0,5.2-.7,6-3.15.2-.55.55-.85,1.15-.85h3.55c.7,0,1.1.4.85,1-1.65,4.35-5.9,7.2-11.45,7.2-7.45,0-12.3-5.15-12.3-13.05ZM361.23,96.69c-.2-5.55-1.6-7.05-6.25-7.05s-6,1.4-6.2,7.05h12.45Z"/>
        <path class="cls-3" d="M371.03,110.24v-23.5c0-.65.35-1,1-1h2.4c.55,0,.95.3,1.15.8l.95,2.5h.2c1.85-2.4,4.4-3.6,7.6-3.6,5.5,0,8.6,4.15,8.6,11.55v13.25c0,.65-.35,1-1,1h-3.75c-.65,0-1-.35-1-1v-15.85c0-3.85-1-4.75-5-4.75-4.45,0-5.35.8-5.35,4.75v15.85c0,.65-.35,1-1,1h-3.8c-.65,0-1-.35-1-1Z"/>
        <path class="cls-3" d="M396.38,98.49c0-7.8,4.15-13,10.3-13,3.2,0,6.1,1.6,7.75,4.15h.2v-12.4c0-.65.35-1,1-1h3.8c.65,0,1,.35,1,1v33c0,.65-.35,1-1,1h-2.4c-.55,0-.95-.25-1.15-.8l-1-3h-.15c-1.5,2.5-4.6,4.1-8.05,4.1-6.15,0-10.3-5.2-10.3-13.05ZM414.93,98.49c0-7.15-1.3-8.85-6.35-8.85s-6.25,1.7-6.25,8.85,1.25,8.85,6.25,8.85,6.35-1.75,6.35-8.85Z"/>
        <path class="cls-3" d="M425.38,78.49c0-2.6.6-3.15,3.4-3.15s3.5.55,3.5,3.15-.65,3.15-3.5,3.15-3.4-.55-3.4-3.15ZM425.93,110.24v-23.5c0-.65.35-1,1-1h3.8c.65,0,1,.35,1,1v23.5c0,.65-.35,1-1,1h-3.8c-.65,0-1-.35-1-1Z"/>
        <path class="cls-3" d="M436.28,110.24v-1.55c0-.5.15-.85.45-1.25l13.5-17.35v-.2h-12.2c-.65,0-1-.35-1-1v-2.15c0-.65.35-1,1-1h18.3c.65,0,1,.35,1,1v1.55c0,.5-.15.85-.45,1.25l-13.45,17.35v.2h13.15c.65,0,1,.35,1,1v2.15c0,.65-.35,1-1,1h-19.3c-.65,0-1-.35-1-1Z"/>
        <path class="cls-3" d="M460.18,103.89c0-4.9,4.15-7.65,10.4-7.65h4.5c1.1,0,1.5-.4,1.5-1.5v-.25c0-4.2-1.05-4.85-4.75-4.85-3.35,0-4.65.8-5.15,3.4-.15.65-.5.95-1.1.95h-3.45c-.7,0-1.1-.4-.9-1.1,1.2-4.35,5.4-7.45,10.6-7.45,6.35,0,10.5,4.1,10.5,10.25v14.55c0,.65-.35,1-1,1h-2.4c-.55,0-.95-.3-1.1-.85l-1-3.1h-.2c-1.75,2.75-4.55,4.25-8,4.25-4.65,0-8.45-3-8.45-7.65ZM476.58,101.04v-1.15h-6.2c-3.9,0-4.55.75-4.55,3.8s.8,3.8,4.25,3.8c4.5,0,6.5-2,6.5-6.45Z"/>
        <path class="cls-3" d="M482.28,120.69c-.55-.15-.8-.55-.8-1.1v-1.75c0-.65.35-1,1-1h2.15c2.9,0,3.2-.25,3.2-2.95v-27.15c0-.65.35-1,1-1h3.8c.65,0,1,.35,1,1v24.95c0,5.4-3,9.35-8.45,9.35-.9,0-1.95-.1-2.9-.35ZM487.28,78.49c0-2.6.6-3.15,3.4-3.15s3.5.55,3.5,3.15-.65,3.15-3.5,3.15-3.4-.55-3.4-3.15Z"/>
        <path class="cls-3" d="M497.58,98.49c0-7.85,4.85-13.05,12.3-13.05s12,4.95,12,13.05v.55c0,.65-.35,1-1,1h-17.35c.2,5.85,1.6,7.3,6.25,7.3,3.75,0,5.2-.7,6-3.15.2-.55.55-.85,1.15-.85h3.55c.7,0,1.1.4.85,1-1.65,4.35-5.9,7.2-11.45,7.2-7.45,0-12.3-5.15-12.3-13.05ZM516.03,96.69c-.2-5.55-1.6-7.05-6.25-7.05s-6,1.4-6.2,7.05h12.45Z"/>
      </g>
    </g>
  </g>
</svg>