<?xml version="1.0" encoding="UTF-8"?>
<svg id="Capa_2" data-name="Capa 2" xmlns="http://www.w3.org/2000/svg" viewBox="0 0 1301 208.64">
  <defs>
    <style>
      .cls-1 {
        fill: #005162;
      }

      .cls-2 {
        fill: none;
        stroke: #6b0a36;
        stroke-miterlimit: 10;
      }

      .cls-3 {
        fill: #003746;
      }

      .cls-4 {
        fill: #ff1b44;
      }
    </style>
  </defs>
  <g id="Capa_1-2" data-name="Capa 1">
    <g>
      <g>
        <path class="cls-2" d="M1300.5,17.99c0-9.65-7.85-17.49-17.49-17.49h-231c-9.65,0-17.49,7.85-17.49,17.49v118.32c0,4.68,1.83,9.08,5.14,12.39,3.3,3.29,7.69,5.11,12.35,5.11h.05l52.24-.14c.71-.06,1.42-.09,2.15-.09h10.14c9.65,0,17.49-7.85,17.49-17.49v-10.43c0-14.61,11.88-26.49,26.49-26.49h122.45c9.65,0,17.49-7.85,17.49-17.49V17.99Z"/>
        <path class="cls-1" d="M1283.01,108.15h-122.45c-9.65,0-17.49,7.85-17.49,17.49v10.49c0,14.57-11.85,26.45-26.42,26.49l-12.02.03c-8.8.91-15.69,8.36-15.69,17.4v10.43c0,9.65,7.85,17.49,17.49,17.49h176.57c9.65,0,17.49-7.85,17.49-17.49v-64.85c0-9.65-7.85-17.49-17.49-17.49Z"/>
      </g>
      <g>
        <path class="cls-4" d="M953.9,54.62h-226.62c-9.65,0-17.49,7.85-17.49,17.49v10.43c0,14.61-11.88,26.49-26.49,26.49h-172.5c-9.65,0-17.49,7.85-17.49,17.49v64.26c0,9.65,7.85,17.49,17.49,17.49h443.1c9.65,0,17.49-7.85,17.49-17.49v-118.68c0-9.65-7.85-17.49-17.49-17.49Z"/>
        <path class="cls-3" d="M342.02,100.04h341.27c9.65,0,17.49-7.85,17.49-17.49V17.7c0-9.65-7.85-17.49-17.49-17.49h-341.27c-9.65,0-17.49,7.85-17.49,17.49v64.85c0,9.65,7.85,17.49,17.49,17.49Z"/>
      </g>
      <path class="cls-2" d="M307.03,108.89h-66.84c-14.61,0-26.49-11.88-26.49-26.49v-10.14c0-9.65-7.85-17.49-17.49-17.49H17.99c-9.65,0-17.49,7.85-17.49,17.49v118.38c0,9.65,7.85,17.49,17.49,17.49h289.04c9.65,0,17.49-7.85,17.49-17.49v-64.26c0-9.65-7.85-17.49-17.49-17.49Z"/>
    </g>
  </g>
</svg>