<?xml version="1.0" encoding="UTF-8"?>
<svg id="Capa_2" data-name="Capa 2" xmlns="http://www.w3.org/2000/svg" viewBox="0 0 801 139.78">
  <defs>
    <style>
      .cls-1 {
        fill: #003746;
      }

      .cls-2 {
        fill: none;
        stroke: #fff;
        stroke-linecap: round;
        stroke-linejoin: round;
        stroke-width: 4px;
      }

      .cls-3 {
        fill: #fff;
        stroke: #601636;
        stroke-miterlimit: 10;
      }

      .cls-4 {
        fill: #ff1b44;
      }
    </style>
  </defs>
  <g id="Capa_1-2" data-name="Capa 1">
    <g id="_NOPROCESS_S08_01_NB">
      <path class="cls-1" d="M18.97,73.97h101.83c10.19,0,18.47,8.28,18.47,18.47v28.36c0,10.19-8.28,18.47-18.47,18.47H18.97c-10.19,0-18.47-8.28-18.47-18.47v-28.36c0-10.19,8.28-18.47,18.47-18.47Z"/>
      <path class="cls-3" d="M782.04,88.35s-.01,0-.02,0h-101.83c-14.69,0-26.64-11.95-26.64-26.64V18.97c0-10.19-8.29-18.47-18.47-18.47H18.97C8.79.5.5,8.79.5,18.97v28.36c0,10.18,8.29,18.47,18.47,18.47h101.83c14.69,0,26.64,11.95,26.64,26.64v28.36c0,10.18,8.29,18.47,18.47,18.47h616.12c10.19,0,18.47-8.29,18.47-18.47v-13.99c0-10.18-8.28-18.46-18.46-18.47Z"/>
      <path class="cls-4" d="M800.5,18.97c0-10.18-8.29-18.47-18.47-18.47h-101.83c-10.19,0-18.47,8.29-18.47,18.47v42.74c0,10.18,8.29,18.47,18.47,18.47h101.83s.01,0,.02,0c10.18,0,18.46-8.29,18.46-18.47V18.97Z"/>
      <g>
        <path class="cls-2" d="M731.11,67.84c-15.16,0-27.5-12.34-27.5-27.5s12.34-27.5,27.5-27.5,27.5,12.34,27.5,27.5-12.34,27.5-27.5,27.5Z"/>
        <path class="cls-2" d="M731.11,57.92c-9.69,0-17.58-7.89-17.58-17.58s7.88-17.58,17.58-17.58,17.58,7.89,17.58,17.58-7.89,17.58-17.58,17.58Z"/>
        <path class="cls-2" d="M731.11,47.92c-4.18,0-7.58-3.4-7.58-7.58s3.4-7.58,7.58-7.58,7.58,3.4,7.58,7.58-3.4,7.58-7.58,7.58Z"/>
      </g>
      <g>
        <path class="cls-1" d="M313.33,67.51c0-10.08,6.24-17.14,15.17-17.14s15.12,7.06,15.12,17.14-6.24,17.04-15.12,17.04-15.17-6.96-15.17-17.04ZM337.72,67.51c0-9.46-2.26-12.67-9.22-12.67s-9.26,3.22-9.26,12.67,2.26,12.58,9.26,12.58,9.22-3.17,9.22-12.58Z"/>
        <path class="cls-1" d="M353.22,80.62h-.14l-.96,2.88c-.19.53-.58.77-1.1.77h-2.3c-.62,0-.96-.34-.96-.96v-31.68c0-.62.34-.96.96-.96h3.65c.62,0,.96.34.96.96v11.9h.19c1.58-2.45,4.37-3.98,7.44-3.98,5.9,0,9.89,4.99,9.89,12.48s-3.98,12.53-9.89,12.53c-3.31,0-6.29-1.54-7.73-3.94ZM365.13,72.02c0-6.86-1.15-8.5-6-8.5s-6.1,1.63-6.1,8.5,1.25,8.5,6.1,8.5,6-1.68,6-8.5Z"/>
        <path class="cls-1" d="M369.78,93.34c-.53-.14-.77-.53-.77-1.06v-1.68c0-.62.34-.96.96-.96h2.06c2.78,0,3.07-.24,3.07-2.83v-26.07c0-.62.34-.96.96-.96h3.65c.62,0,.96.34.96.96v23.95c0,5.18-2.88,8.98-8.11,8.98-.86,0-1.87-.1-2.78-.34ZM374.58,52.82c0-2.5.58-3.02,3.26-3.02s3.36.53,3.36,3.02-.62,3.02-3.36,3.02-3.26-.53-3.26-3.02Z"/>
        <path class="cls-1" d="M384.47,72.02c0-7.54,4.66-12.53,11.81-12.53s11.52,4.75,11.52,12.53v.53c0,.62-.34.96-.96.96h-16.66c.19,5.62,1.54,7.01,6,7.01,3.6,0,4.99-.67,5.76-3.02.19-.53.53-.82,1.1-.82h3.41c.67,0,1.06.38.82.96-1.58,4.18-5.66,6.91-10.99,6.91-7.15,0-11.81-4.94-11.81-12.53ZM402.18,70.3c-.19-5.33-1.54-6.77-6-6.77s-5.76,1.34-5.95,6.77h11.95Z"/>
        <path class="cls-1" d="M414.18,75.58v-11.81h-3.46c-.62,0-.96-.34-.96-.96v-2.06c0-.62.34-.96.96-.96h3.46v-5.23c0-.58.29-.91.86-1.06l3.6-.72c.62-.14,1.06.14,1.06.82v6.19h5.18c.62,0,.96.34.96.96v2.06c0,.62-.34.96-.96.96h-5.18v13.92c0,2.59.29,2.83,3.07,2.83h2.06c.62,0,.96.34.96.96v1.68c0,.53-.24.91-.77,1.06-.91.24-1.92.34-2.78.34-5.23,0-8.06-3.79-8.06-8.98Z"/>
        <path class="cls-1" d="M429.4,52.82c0-2.5.58-3.02,3.26-3.02s3.36.53,3.36,3.02-.62,3.02-3.36,3.02-3.26-.53-3.26-3.02ZM429.92,83.3v-22.56c0-.62.34-.96.96-.96h3.65c.62,0,.96.34.96.96v22.56c0,.62-.34.96-.96.96h-3.65c-.62,0-.96-.34-.96-.96Z"/>
        <path class="cls-1" d="M447.3,83.5l-8.3-22.61c-.24-.67.1-1.1.77-1.1h3.84c.53,0,.91.29,1.06.82l6.19,19.59h.19l6.24-19.59c.14-.53.53-.82,1.06-.82h3.6c.67,0,1.06.43.82,1.1l-8.35,22.61c-.19.48-.58.77-1.1.77h-4.9c-.53,0-.91-.24-1.1-.77Z"/>
        <path class="cls-1" d="M464.58,72.02c0-7.49,4.7-12.53,11.71-12.53s11.71,5.04,11.71,12.53-4.7,12.53-11.71,12.53-11.71-4.99-11.71-12.53ZM482.29,72.02c0-6.86-1.15-8.5-6-8.5s-6,1.63-6,8.5,1.15,8.5,6,8.5,6-1.68,6-8.5Z"/>
      </g>
    </g>
  </g>
</svg>