<?xml version="1.0" encoding="UTF-8"?>
<svg id="Capa_2" data-name="Capa 2" xmlns="http://www.w3.org/2000/svg" viewBox="0 0 1024 258">
  <defs>
    <style>
      .cls-1, .cls-2 {
        fill: none;
      }

      .cls-3 {
        fill: #ff003a;
      }

      .cls-4 {
        fill: #fff;
        stroke: #003746;
        stroke-miterlimit: 10;
      }

      .cls-5 {
        fill: #003746;
      }

      .cls-2 {
        stroke: #fff;
        stroke-linecap: round;
        stroke-linejoin: round;
        stroke-width: 4.2px;
      }
    </style>
  </defs>
  <rect class="cls-1" x="225.7" y="35.9" width="597.3" height="134.1"/>
  <g>
    <g>
      <path class="cls-4" d="M805.8,168.3v-12.8c0-8-6.5-14.5-14.5-14.5h-14.3c-13.8,0-25-11.2-25-25v-2.7c0-12.4-10-22.4-22.4-22.4H250.3c-13.8,0-25,11.2-25,25v41.9c0,13.8,11.2,25,25,25h541.1c8,0,14.5-6.5,14.5-14.5h-.1Z"/>
      <g>
        <path class="cls-3" d="M812.4,81c5.3,5.2,6.3,13.7,6.3,24.8s-1.1,19.6-6.3,24.8c-5.2,5.2-13.6,6.2-24.7,6.2h0c-15.3,0-20.9-2.5-24.7-6.2-5.3-5.2-6.3-13.7-6.3-24.8s1.1-19.6,6.3-24.8c5.2-5.2,13.6-6.2,24.7-6.2h0c15.3,0,20.9,2.5,24.7,6.2Z"/>
        <g>
          <line class="cls-2" x1="772" y1="121.5" x2="802.1" y2="91.4"/>
          <polyline class="cls-2" points="785.7 90 803.5 90 803.5 107.8"/>
        </g>
      </g>
    </g>
    <g>
      <path class="cls-5" d="M291.54,130.94v-18.33c0-.36.19-.56.56-.56h6.67c5.22,0,8.64,3.89,8.64,9.75s-3.42,9.69-8.64,9.69h-6.67c-.36,0-.56-.19-.56-.56ZM303.98,121.81c0-5.33-1.33-7.17-5.61-7.17h-3.55v14.27h3.55c4.28,0,5.61-1.81,5.61-7.11Z"/>
      <path class="cls-5" d="M308.92,124.42c0-4.36,2.69-7.25,6.83-7.25s6.67,2.75,6.67,7.25v.31c0,.36-.19.56-.56.56h-9.64c.11,3.25.89,4.05,3.47,4.05,2.08,0,2.89-.39,3.33-1.75.11-.31.31-.47.64-.47h1.97c.39,0,.61.22.47.56-.92,2.42-3.28,4-6.36,4-4.14,0-6.83-2.86-6.83-7.25ZM319.17,123.42c-.11-3.08-.89-3.92-3.47-3.92s-3.33.78-3.44,3.92h6.92Z"/>
      <path class="cls-5" d="M324.02,127.64c-.08-.36.14-.58.5-.58h1.78c.33,0,.53.19.58.53.25,1.58.81,1.89,2.67,1.89s2.39-.39,2.39-1.89c0-1.19-.36-1.53-2.08-1.83l-1.53-.31c-2.86-.56-4.05-1.78-4.05-4.11s2.19-4.17,5.14-4.17c2.72,0,4.64,1.42,5.11,3.69.08.36-.17.58-.53.58h-1.75c-.33,0-.53-.19-.58-.53-.22-1.39-.67-1.56-2.22-1.56-1.72,0-2.14.33-2.14,1.72,0,1.28.33,1.61,2.14,1.94l1.58.31c2.89.58,3.92,1.67,3.92,4.05,0,2.64-2,4.28-5.28,4.28-3.08,0-5.22-1.53-5.64-4.03Z"/>
      <path class="cls-5" d="M337.35,126.47v-13.86c0-.36.19-.56.56-.56h2.11c.36,0,.56.19.56.56v15.08c0,1.5.14,1.64,1.78,1.64h.39c.36,0,.56.19.56.56v1.11c0,.31-.08.56-.31.58-.25.06-.56.08-.94.08-3.03,0-4.69-2.19-4.69-5.19Z"/>
      <path class="cls-5" d="M344.85,113.31c0-1.44.33-1.75,1.89-1.75s1.94.31,1.94,1.75-.36,1.75-1.94,1.75-1.89-.31-1.89-1.75ZM345.15,130.94v-13.05c0-.36.19-.56.56-.56h2.11c.36,0,.56.19.56.56v13.05c0,.36-.19.56-.56.56h-2.11c-.36,0-.56-.19-.56-.56Z"/>
      <path class="cls-5" d="M350.9,130.94v-.86c0-.28.08-.47.25-.69l7.5-9.64v-.11h-6.78c-.36,0-.56-.19-.56-.56v-1.19c0-.36.19-.56.56-.56h10.16c.36,0,.56.19.56.56v.86c0,.28-.08.47-.25.69l-7.47,9.64v.11h7.3c.36,0,.56.19.56.55v1.19c0,.36-.19.56-.56.56h-10.72c-.36,0-.56-.19-.56-.56Z"/>
      <path class="cls-5" d="M364.17,127.42c0-2.72,2.3-4.25,5.78-4.25h2.5c.61,0,.83-.22.83-.83v-.14c0-2.33-.58-2.69-2.64-2.69-1.86,0-2.58.44-2.86,1.89-.08.36-.28.53-.61.53h-1.92c-.39,0-.61-.22-.5-.61.67-2.42,3-4.14,5.89-4.14,3.53,0,5.83,2.28,5.83,5.69v8.08c0,.36-.19.56-.56.56h-1.33c-.31,0-.53-.17-.61-.47l-.56-1.72h-.11c-.97,1.53-2.53,2.36-4.44,2.36-2.58,0-4.69-1.67-4.69-4.25ZM373.28,125.83v-.64h-3.44c-2.17,0-2.53.42-2.53,2.11s.44,2.11,2.36,2.11c2.5,0,3.61-1.11,3.61-3.58Z"/>
      <path class="cls-5" d="M384.33,124.42c0-4.36,2.69-7.25,6.83-7.25s6.67,2.75,6.67,7.25v.31c0,.36-.19.56-.56.56h-9.64c.11,3.25.89,4.05,3.47,4.05,2.08,0,2.89-.39,3.33-1.75.11-.31.31-.47.64-.47h1.97c.39,0,.61.22.47.56-.92,2.42-3.28,4-6.36,4-4.14,0-6.83-2.86-6.83-7.25ZM394.58,123.42c-.11-3.08-.89-3.92-3.47-3.92s-3.33.78-3.44,3.92h6.92Z"/>
      <path class="cls-5" d="M400.02,126.47v-13.86c0-.36.19-.56.56-.56h2.11c.36,0,.56.19.56.56v15.08c0,1.5.14,1.64,1.78,1.64h.39c.36,0,.56.19.56.56v1.11c0,.31-.08.56-.31.58-.25.06-.56.08-.94.08-3.03,0-4.69-2.19-4.69-5.19Z"/>
      <path class="cls-5" d="M412.9,124.42c0-4.33,2.69-7.25,6.78-7.25,3.19,0,5.55,1.83,6.14,4.5.06.39-.17.61-.53.61h-1.97c-.33,0-.56-.17-.61-.53-.31-1.75-.97-2.25-3-2.25-2.86,0-3.5.94-3.5,4.92s.67,4.92,3.47,4.92c2.05,0,2.8-.5,3.17-2.25.06-.33.25-.5.58-.5h2c.39,0,.58.22.5.56-.67,2.69-3.08,4.53-6.22,4.53-4.11,0-6.8-2.89-6.8-7.25Z"/>
      <path class="cls-5" d="M440.11,117.89v13.05c0,.36-.19.56-.56.56h-1.33c-.31,0-.53-.17-.64-.44l-.53-1.39h-.11c-1.03,1.33-2.44,2-4.22,2-3.05,0-4.78-2.31-4.78-6.42v-7.36c0-.36.19-.56.56-.56h2.08c.36,0,.56.19.56.56v8.8c0,2.14.56,2.64,2.78,2.64,2.47,0,2.97-.44,2.97-2.64v-8.8c0-.36.19-.56.56-.56h2.11c.36,0,.56.19.56.56Z"/>
      <path class="cls-5" d="M443.17,130.94v-13.05c0-.36.19-.56.56-.56h1.33c.31,0,.53.17.61.47l.56,1.81h.11c.61-1.31,1.94-2.28,4.25-2.42.39-.03.58.17.58.53v1.81c0,.36-.19.56-.56.56h-1.22c-2.53,0-3,.72-3,2.94v7.91c0,.36-.19.56-.56.56h-2.11c-.36,0-.56-.19-.56-.56Z"/>
      <path class="cls-5" d="M452.72,127.64c-.08-.36.14-.58.5-.58h1.78c.33,0,.53.19.58.53.25,1.58.81,1.89,2.67,1.89s2.39-.39,2.39-1.89c0-1.19-.36-1.53-2.08-1.83l-1.53-.31c-2.86-.56-4.05-1.78-4.05-4.11s2.19-4.17,5.14-4.17c2.72,0,4.64,1.42,5.11,3.69.08.36-.17.58-.53.58h-1.75c-.33,0-.53-.19-.58-.53-.22-1.39-.67-1.56-2.22-1.56-1.72,0-2.14.33-2.14,1.72,0,1.28.33,1.61,2.14,1.94l1.58.31c2.89.58,3.92,1.67,3.92,4.05,0,2.64-2,4.28-5.28,4.28-3.08,0-5.22-1.53-5.64-4.03Z"/>
      <path class="cls-5" d="M465.18,124.42c0-4.33,2.72-7.25,6.78-7.25s6.78,2.92,6.78,7.25-2.72,7.25-6.78,7.25-6.78-2.89-6.78-7.25ZM475.43,124.42c0-3.97-.67-4.92-3.47-4.92s-3.47.94-3.47,4.92.67,4.92,3.47,4.92,3.47-.97,3.47-4.92Z"/>
      <path class="cls-5" d="M480.93,130.94v-13.05c0-.36.19-.56.56-.56h1.33c.31,0,.53.17.61.47l.56,1.81h.11c.61-1.31,1.94-2.28,4.25-2.42.39-.03.58.17.58.53v1.81c0,.36-.19.56-.56.56h-1.22c-2.53,0-3,.72-3,2.94v7.91c0,.36-.19.56-.56.56h-2.11c-.36,0-.56-.19-.56-.56Z"/>
      <path class="cls-5" d="M496.42,127.64c-.08-.36.14-.58.5-.58h1.78c.33,0,.53.19.58.53.25,1.58.81,1.89,2.67,1.89s2.39-.39,2.39-1.89c0-1.19-.36-1.53-2.08-1.83l-1.53-.31c-2.86-.56-4.05-1.78-4.05-4.11s2.19-4.17,5.14-4.17c2.72,0,4.64,1.42,5.11,3.69.08.36-.17.58-.53.58h-1.75c-.33,0-.53-.19-.58-.53-.22-1.39-.67-1.56-2.22-1.56-1.72,0-2.14.33-2.14,1.72,0,1.28.33,1.61,2.14,1.94l1.58.31c2.89.58,3.92,1.67,3.92,4.05,0,2.64-2,4.28-5.28,4.28-3.08,0-5.22-1.53-5.64-4.03Z"/>
      <path class="cls-5" d="M508.89,124.42c0-4.33,2.72-7.25,6.78-7.25s6.78,2.92,6.78,7.25-2.72,7.25-6.78,7.25-6.78-2.89-6.78-7.25ZM519.13,124.42c0-3.97-.67-4.92-3.47-4.92s-3.47.94-3.47,4.92.67,4.92,3.47,4.92,3.47-.97,3.47-4.92Z"/>
      <path class="cls-5" d="M527.8,129.39h-.08l-.56,1.67c-.11.31-.33.44-.64.44h-1.33c-.36,0-.56-.19-.56-.56v-18.33c0-.36.19-.56.56-.56h2.11c.36,0,.56.19.56.56v6.89h.11c.92-1.42,2.53-2.31,4.3-2.31,3.42,0,5.72,2.89,5.72,7.22s-2.31,7.25-5.72,7.25c-1.92,0-3.64-.89-4.47-2.28ZM534.68,124.42c0-3.97-.67-4.92-3.47-4.92s-3.53.94-3.53,4.92.72,4.92,3.53,4.92,3.47-.97,3.47-4.92Z"/>
      <path class="cls-5" d="M540.18,130.94v-13.05c0-.36.19-.56.56-.56h1.33c.31,0,.53.17.61.47l.56,1.81h.11c.61-1.31,1.94-2.28,4.25-2.42.39-.03.58.17.58.53v1.81c0,.36-.19.56-.56.56h-1.22c-2.53,0-3,.72-3,2.94v7.91c0,.36-.19.56-.56.56h-2.11c-.36,0-.56-.19-.56-.56Z"/>
      <path class="cls-5" d="M549.34,124.42c0-4.36,2.69-7.25,6.83-7.25s6.67,2.75,6.67,7.25v.31c0,.36-.19.56-.56.56h-9.64c.11,3.25.89,4.05,3.47,4.05,2.08,0,2.89-.39,3.33-1.75.11-.31.31-.47.64-.47h1.97c.39,0,.61.22.47.56-.92,2.42-3.28,4-6.36,4-4.14,0-6.83-2.86-6.83-7.25ZM559.59,123.42c-.11-3.08-.89-3.92-3.47-3.92s-3.33.78-3.44,3.92h6.92Z"/>
      <path class="cls-5" d="M570.97,126.47v-13.86c0-.36.19-.56.56-.56h2.11c.36,0,.56.19.56.56v15.08c0,1.5.14,1.64,1.78,1.64h.39c.36,0,.56.19.56.56v1.11c0,.31-.08.56-.31.58-.25.06-.56.08-.94.08-3.03,0-4.69-2.19-4.69-5.19Z"/>
      <path class="cls-5" d="M577.8,124.42c0-4.33,2.72-7.25,6.78-7.25s6.78,2.92,6.78,7.25-2.72,7.25-6.78,7.25-6.78-2.89-6.78-7.25ZM588.05,124.42c0-3.97-.67-4.92-3.47-4.92s-3.47.94-3.47,4.92.67,4.92,3.47,4.92,3.47-.97,3.47-4.92Z"/>
      <path class="cls-5" d="M592.96,127.64c-.08-.36.14-.58.5-.58h1.78c.33,0,.53.19.58.53.25,1.58.81,1.89,2.67,1.89s2.39-.39,2.39-1.89c0-1.19-.36-1.53-2.08-1.83l-1.53-.31c-2.86-.56-4.05-1.78-4.05-4.11s2.19-4.17,5.14-4.17c2.72,0,4.64,1.42,5.11,3.69.08.36-.17.58-.53.58h-1.75c-.33,0-.53-.19-.58-.53-.22-1.39-.67-1.56-2.22-1.56-1.72,0-2.14.33-2.14,1.72,0,1.28.33,1.61,2.14,1.94l1.58.31c2.89.58,3.92,1.67,3.92,4.05,0,2.64-2,4.28-5.28,4.28-3.08,0-5.22-1.53-5.64-4.03Z"/>
      <path class="cls-5" d="M615.4,129.39h-.08l-.56,1.67c-.11.31-.33.44-.64.44h-1.33c-.36,0-.56-.19-.56-.56v-18.33c0-.36.19-.56.56-.56h2.11c.36,0,.56.19.56.56v6.89h.11c.92-1.42,2.53-2.31,4.3-2.31,3.42,0,5.72,2.89,5.72,7.22s-2.31,7.25-5.72,7.25c-1.92,0-3.64-.89-4.47-2.28ZM622.28,124.42c0-3.97-.67-4.92-3.47-4.92s-3.53.94-3.53,4.92.72,4.92,3.53,4.92,3.47-.97,3.47-4.92Z"/>
      <path class="cls-5" d="M626.92,124.42c0-4.33,2.72-7.25,6.78-7.25s6.78,2.92,6.78,7.25-2.72,7.25-6.78,7.25-6.78-2.89-6.78-7.25ZM637.17,124.42c0-3.97-.67-4.92-3.47-4.92s-3.47.94-3.47,4.92.67,4.92,3.47,4.92,3.47-.97,3.47-4.92Z"/>
      <path class="cls-5" d="M644.16,126.47v-6.83h-2c-.36,0-.56-.19-.56-.56v-1.19c0-.36.19-.56.56-.56h2v-3.03c0-.33.17-.53.5-.61l2.08-.42c.36-.08.61.08.61.47v3.58h3c.36,0,.56.19.56.56v1.19c0,.36-.19.56-.56.56h-3v8.05c0,1.5.17,1.64,1.78,1.64h1.19c.36,0,.56.19.56.56v.97c0,.31-.14.53-.44.61-.53.14-1.11.19-1.61.19-3.03,0-4.67-2.19-4.67-5.19Z"/>
      <path class="cls-5" d="M651.91,124.42c0-4.33,2.72-7.25,6.78-7.25s6.78,2.92,6.78,7.25-2.72,7.25-6.78,7.25-6.78-2.89-6.78-7.25ZM662.15,124.42c0-3.97-.67-4.92-3.47-4.92s-3.47.94-3.47,4.92.67,4.92,3.47,4.92,3.47-.97,3.47-4.92Z"/>
      <path class="cls-5" d="M667.65,130.94v-13.05c0-.36.19-.56.56-.56h1.33c.31,0,.53.17.64.44l.53,1.39h.11c1.03-1.33,2.44-2,4.22-2,3.05,0,4.78,2.31,4.78,6.42v7.36c0,.36-.19.56-.56.56h-2.08c-.36,0-.56-.19-.56-.56v-8.8c0-2.14-.56-2.64-2.78-2.64-2.47,0-2.97.44-2.97,2.64v8.8c0,.36-.19.56-.56.56h-2.11c-.36,0-.56-.19-.56-.56Z"/>
      <path class="cls-5" d="M681.73,124.42c0-4.36,2.69-7.25,6.83-7.25s6.67,2.75,6.67,7.25v.31c0,.36-.19.56-.56.56h-9.64c.11,3.25.89,4.05,3.47,4.05,2.08,0,2.89-.39,3.33-1.75.11-.31.31-.47.64-.47h1.97c.39,0,.61.22.47.56-.92,2.42-3.28,4-6.36,4-4.14,0-6.83-2.86-6.83-7.25ZM691.98,123.42c-.11-3.08-.89-3.92-3.47-3.92s-3.33.78-3.44,3.92h6.92Z"/>
      <path class="cls-5" d="M696.83,127.64c-.08-.36.14-.58.5-.58h1.78c.33,0,.53.19.58.53.25,1.58.81,1.89,2.67,1.89s2.39-.39,2.39-1.89c0-1.19-.36-1.53-2.08-1.83l-1.53-.31c-2.86-.56-4.05-1.78-4.05-4.11s2.19-4.17,5.14-4.17c2.72,0,4.64,1.42,5.11,3.69.08.36-.17.58-.53.58h-1.75c-.33,0-.53-.19-.58-.53-.22-1.39-.67-1.56-2.22-1.56-1.72,0-2.14.33-2.14,1.72,0,1.28.33,1.61,2.14,1.94l1.58.31c2.89.58,3.92,1.67,3.92,4.05,0,2.64-2,4.28-5.28,4.28-3.08,0-5.22-1.53-5.64-4.03Z"/>
      <path class="cls-5" d="M325.89,159.82v-13.05c0-.36.19-.56.56-.56h1.33c.31,0,.53.17.61.47l.56,1.81h.11c.61-1.31,1.94-2.28,4.25-2.42.39-.03.58.17.58.53v1.8c0,.36-.19.56-.56.56h-1.22c-2.53,0-3,.72-3,2.94v7.91c0,.36-.19.56-.56.56h-2.11c-.36,0-.56-.19-.56-.56Z"/>
      <path class="cls-5" d="M335.05,153.29c0-4.33,2.72-7.25,6.78-7.25s6.78,2.92,6.78,7.25-2.72,7.25-6.78,7.25-6.78-2.89-6.78-7.25ZM345.3,153.29c0-3.97-.67-4.92-3.47-4.92s-3.47.94-3.47,4.92.67,4.92,3.47,4.92,3.47-.97,3.47-4.92Z"/>
      <path class="cls-5" d="M347.99,165.62c-.31-.08-.44-.31-.44-.61v-.97c0-.36.19-.56.56-.56h1.19c1.61,0,1.78-.14,1.78-1.64v-15.08c0-.36.19-.56.56-.56h2.11c.36,0,.56.19.56.56v13.86c0,3-1.67,5.19-4.69,5.19-.5,0-1.08-.06-1.61-.19ZM350.76,142.18c0-1.44.33-1.75,1.89-1.75s1.94.31,1.94,1.75-.36,1.75-1.94,1.75-1.89-.31-1.89-1.75Z"/>
      <path class="cls-5" d="M356.48,153.29c0-4.33,2.72-7.25,6.78-7.25s6.78,2.92,6.78,7.25-2.72,7.25-6.78,7.25-6.78-2.89-6.78-7.25ZM366.73,153.29c0-3.97-.67-4.92-3.47-4.92s-3.47.94-3.47,4.92.67,4.92,3.47,4.92,3.47-.97,3.47-4.92Z"/>
      <path class="cls-5" d="M371.64,156.51c-.08-.36.14-.58.5-.58h1.78c.33,0,.53.19.58.53.25,1.58.81,1.89,2.67,1.89s2.39-.39,2.39-1.89c0-1.19-.36-1.53-2.08-1.83l-1.53-.3c-2.86-.56-4.05-1.78-4.05-4.11s2.19-4.17,5.14-4.17c2.72,0,4.64,1.42,5.11,3.69.08.36-.17.58-.53.58h-1.75c-.33,0-.53-.19-.58-.53-.22-1.39-.67-1.55-2.22-1.55-1.72,0-2.14.33-2.14,1.72,0,1.28.33,1.61,2.14,1.94l1.58.3c2.89.58,3.92,1.67,3.92,4.05,0,2.64-2,4.28-5.28,4.28-3.08,0-5.22-1.53-5.64-4.03Z"/>
      <path class="cls-5" d="M404.27,153.29c0,4.36-2.31,7.25-5.72,7.25-1.78,0-3.39-.89-4.3-2.33h-.11v6.89c0,.36-.19.56-.56.56h-2.11c-.36,0-.56-.19-.56-.56v-18.33c0-.36.19-.56.56-.56h1.33c.31,0,.53.14.64.44l.56,1.69h.08c.83-1.39,2.55-2.31,4.47-2.31,3.42,0,5.72,2.92,5.72,7.25ZM393.97,153.29c0,3.97.72,4.92,3.53,4.92s3.47-.94,3.47-4.92-.69-4.92-3.47-4.92-3.53.97-3.53,4.92Z"/>
      <path class="cls-5" d="M405.93,156.29c0-2.72,2.3-4.25,5.78-4.25h2.5c.61,0,.83-.22.83-.83v-.14c0-2.33-.58-2.69-2.64-2.69-1.86,0-2.58.44-2.86,1.89-.08.36-.28.53-.61.53h-1.92c-.39,0-.61-.22-.5-.61.67-2.42,3-4.14,5.89-4.14,3.53,0,5.83,2.28,5.83,5.69v8.08c0,.36-.19.56-.56.56h-1.33c-.31,0-.53-.17-.61-.47l-.56-1.72h-.11c-.97,1.53-2.53,2.36-4.44,2.36-2.58,0-4.69-1.67-4.69-4.25ZM415.04,154.71v-.64h-3.44c-2.17,0-2.53.42-2.53,2.11s.44,2.11,2.36,2.11c2.5,0,3.61-1.11,3.61-3.58Z"/>
      <path class="cls-5" d="M421.01,159.82v-13.05c0-.36.19-.56.56-.56h1.33c.31,0,.53.17.61.47l.56,1.81h.11c.61-1.31,1.94-2.28,4.25-2.42.39-.03.58.17.58.53v1.8c0,.36-.19.56-.56.56h-1.22c-2.53,0-3,.72-3,2.94v7.91c0,.36-.19.56-.56.56h-2.11c-.36,0-.56-.19-.56-.56Z"/>
      <path class="cls-5" d="M429.81,156.29c0-2.72,2.31-4.25,5.78-4.25h2.5c.61,0,.83-.22.83-.83v-.14c0-2.33-.58-2.69-2.64-2.69-1.86,0-2.58.44-2.86,1.89-.08.36-.28.53-.61.53h-1.92c-.39,0-.61-.22-.5-.61.67-2.42,3-4.14,5.89-4.14,3.53,0,5.83,2.28,5.83,5.69v8.08c0,.36-.19.56-.56.56h-1.33c-.31,0-.53-.17-.61-.47l-.56-1.72h-.11c-.97,1.53-2.53,2.36-4.44,2.36-2.58,0-4.69-1.67-4.69-4.25ZM438.92,154.71v-.64h-3.44c-2.17,0-2.53.42-2.53,2.11s.44,2.11,2.36,2.11c2.5,0,3.61-1.11,3.61-3.58Z"/>
      <path class="cls-5" d="M454.61,159.93l-4.8-13.08c-.14-.39.06-.64.44-.64h2.22c.31,0,.53.17.61.47l3.58,11.33h.11l3.61-11.33c.08-.31.31-.47.61-.47h2.08c.39,0,.61.25.47.64l-4.83,13.08c-.11.28-.33.44-.64.44h-2.83c-.31,0-.53-.14-.64-.44Z"/>
      <path class="cls-5" d="M464.6,153.29c0-4.36,2.69-7.25,6.83-7.25s6.67,2.75,6.67,7.25v.31c0,.36-.19.56-.56.56h-9.64c.11,3.25.89,4.05,3.47,4.05,2.08,0,2.89-.39,3.33-1.75.11-.31.31-.47.64-.47h1.97c.39,0,.61.22.47.56-.92,2.42-3.28,4-6.36,4-4.14,0-6.83-2.86-6.83-7.25ZM474.85,152.29c-.11-3.08-.89-3.92-3.47-3.92s-3.33.78-3.44,3.92h6.92Z"/>
      <path class="cls-5" d="M480.29,159.82v-13.05c0-.36.19-.56.56-.56h1.33c.31,0,.53.17.61.47l.56,1.81h.11c.61-1.31,1.94-2.28,4.25-2.42.39-.03.58.17.58.53v1.8c0,.36-.19.56-.56.56h-1.22c-2.53,0-3,.72-3,2.94v7.91c0,.36-.19.56-.56.56h-2.11c-.36,0-.56-.19-.56-.56Z"/>
      <path class="cls-5" d="M496.37,155.35v-13.86c0-.36.19-.56.56-.56h2.11c.36,0,.56.19.56.56v15.08c0,1.5.14,1.64,1.78,1.64h.39c.36,0,.56.19.56.56v1.11c0,.31-.08.56-.31.58-.25.06-.56.08-.94.08-3.03,0-4.69-2.19-4.69-5.19Z"/>
      <path class="cls-5" d="M503.64,156.29c0-2.72,2.3-4.25,5.78-4.25h2.5c.61,0,.83-.22.83-.83v-.14c0-2.33-.58-2.69-2.64-2.69-1.86,0-2.58.44-2.86,1.89-.08.36-.28.53-.61.53h-1.92c-.39,0-.61-.22-.5-.61.67-2.42,3-4.14,5.89-4.14,3.53,0,5.83,2.28,5.83,5.69v8.08c0,.36-.19.56-.56.56h-1.33c-.31,0-.53-.17-.61-.47l-.56-1.72h-.11c-.97,1.53-2.53,2.36-4.44,2.36-2.58,0-4.69-1.67-4.69-4.25ZM512.75,154.71v-.64h-3.44c-2.17,0-2.53.42-2.53,2.11s.44,2.11,2.36,2.11c2.5,0,3.61-1.11,3.61-3.58Z"/>
      <path class="cls-5" d="M524.35,142.18c0-1.44.33-1.75,1.89-1.75s1.94.31,1.94,1.75-.36,1.75-1.94,1.75-1.89-.31-1.89-1.75ZM524.66,159.82v-13.05c0-.36.19-.56.56-.56h2.11c.36,0,.56.19.56.56v13.05c0,.36-.19.56-.56.56h-2.11c-.36,0-.56-.19-.56-.56Z"/>
      <path class="cls-5" d="M530.93,159.82v-13.05c0-.36.19-.56.56-.56h1.33c.31,0,.53.17.64.44l.53,1.39h.11c1.03-1.33,2.44-2,4.22-2,3.05,0,4.78,2.31,4.78,6.42v7.36c0,.36-.19.56-.56.56h-2.08c-.36,0-.56-.19-.56-.56v-8.8c0-2.14-.56-2.64-2.78-2.64-2.47,0-2.97.44-2.97,2.64v8.8c0,.36-.19.56-.56.56h-2.11c-.36,0-.56-.19-.56-.56Z"/>
      <path class="cls-5" d="M552.04,140.77c.53,0,1.08.06,1.64.19.31.08.44.31.44.61v.97c0,.36-.19.56-.56.56h-1.22c-1.61,0-1.78.14-1.78,1.64v1.47h3c.36,0,.56.19.56.56v1.17c0,.36-.19.56-.56.56h-3v11.33c0,.36-.19.56-.56.56h-2.08c-.36,0-.56-.19-.56-.56v-11.33h-2c-.36,0-.56-.19-.56-.56v-1.17c0-.36.19-.56.56-.56h2v-.25c0-3,1.64-5.19,4.67-5.19Z"/>
      <path class="cls-5" d="M554.7,153.29c0-4.33,2.72-7.25,6.78-7.25s6.78,2.92,6.78,7.25-2.72,7.25-6.78,7.25-6.78-2.89-6.78-7.25ZM564.95,153.29c0-3.97-.67-4.92-3.47-4.92s-3.47.94-3.47,4.92.67,4.92,3.47,4.92,3.47-.97,3.47-4.92Z"/>
      <path class="cls-5" d="M570.44,159.82v-13.05c0-.36.19-.56.56-.56h1.33c.31,0,.53.17.61.47l.56,1.81h.11c.61-1.31,1.94-2.28,4.25-2.42.39-.03.58.17.58.53v1.8c0,.36-.19.56-.56.56h-1.22c-2.53,0-3,.72-3,2.94v7.91c0,.36-.19.56-.56.56h-2.11c-.36,0-.56-.19-.56-.56Z"/>
      <path class="cls-5" d="M580.58,159.82v-13.05c0-.36.19-.56.56-.56h1.33c.31,0,.53.17.64.44l.53,1.39h.11c1-1.33,2.36-2,4.11-2,1.64,0,2.83.61,3.83,2h.08c1.25-1.42,2.67-2,4.47-2,3.39,0,5,2.25,5,6.42v7.36c0,.36-.19.56-.56.56h-2.08c-.36,0-.56-.19-.56-.56v-8.8c0-2.14-.53-2.64-2.67-2.64-2.36,0-2.86.44-2.86,2.64v8.8c0,.36-.19.56-.56.56h-2.08c-.36,0-.56-.19-.56-.56v-8.8c0-2.14-.53-2.64-2.67-2.64-2.36,0-2.86.44-2.86,2.64v8.8c0,.36-.19.56-.56.56h-2.11c-.36,0-.56-.19-.56-.56Z"/>
      <path class="cls-5" d="M603.51,156.29c0-2.72,2.31-4.25,5.78-4.25h2.5c.61,0,.83-.22.83-.83v-.14c0-2.33-.58-2.69-2.64-2.69-1.86,0-2.58.44-2.86,1.89-.08.36-.28.53-.61.53h-1.92c-.39,0-.61-.22-.5-.61.67-2.42,3-4.14,5.89-4.14,3.53,0,5.83,2.28,5.83,5.69v8.08c0,.36-.19.56-.56.56h-1.33c-.31,0-.53-.17-.61-.47l-.56-1.72h-.11c-.97,1.53-2.53,2.36-4.44,2.36-2.58,0-4.69-1.67-4.69-4.25ZM612.62,154.71v-.64h-3.44c-2.17,0-2.53.42-2.53,2.11s.44,2.11,2.36,2.11c2.5,0,3.61-1.11,3.61-3.58Z"/>
      <path class="cls-5" d="M617.73,153.29c0-4.33,2.69-7.25,6.78-7.25,3.19,0,5.55,1.83,6.14,4.5.06.39-.17.61-.53.61h-1.97c-.33,0-.56-.17-.61-.53-.31-1.75-.97-2.25-3-2.25-2.86,0-3.5.94-3.5,4.92s.67,4.92,3.47,4.92c2.05,0,2.8-.5,3.17-2.25.06-.33.25-.5.58-.5h2c.39,0,.58.22.5.55-.67,2.69-3.08,4.53-6.22,4.53-4.11,0-6.8-2.89-6.8-7.25Z"/>
      <path class="cls-5" d="M632.75,142.18c0-1.44.33-1.75,1.89-1.75s1.94.31,1.94,1.75-.36,1.75-1.94,1.75-1.89-.31-1.89-1.75ZM633.05,159.82v-13.05c0-.36.19-.56.56-.56h2.11c.36,0,.56.19.56.56v13.05c0,.36-.19.56-.56.56h-2.11c-.36,0-.56-.19-.56-.56Z"/>
      <path class="cls-5" d="M638.47,153.29c0-4.33,2.72-7.25,6.78-7.25s6.78,2.92,6.78,7.25-2.72,7.25-6.78,7.25-6.78-2.89-6.78-7.25ZM648.72,153.29c0-3.97-.67-4.92-3.47-4.92s-3.47.94-3.47,4.92.67,4.92,3.47,4.92,3.47-.97,3.47-4.92ZM643.8,143.46c.86-1,1.58-2.06,2.08-3.17.14-.28.36-.42.67-.42h2.28c.44,0,.64.28.42.67-.89,1.44-2.08,2.83-4.08,4.25-.28.19-.53.19-.78-.06l-.53-.5c-.25-.22-.28-.5-.06-.78Z"/>
      <path class="cls-5" d="M654.21,159.82v-13.05c0-.36.19-.56.56-.56h1.33c.31,0,.53.17.64.44l.53,1.39h.11c1.03-1.33,2.44-2,4.22-2,3.05,0,4.78,2.31,4.78,6.42v7.36c0,.36-.19.56-.56.56h-2.08c-.36,0-.56-.19-.56-.56v-8.8c0-2.14-.56-2.64-2.78-2.64-2.47,0-2.97.44-2.97,2.64v8.8c0,.36-.19.56-.56.56h-2.11c-.36,0-.56-.19-.56-.56Z"/>
      <path class="cls-5" d="M668.87,158.57c0-1.53.36-1.86,2.06-1.86s2,.33,2,1.86-.36,1.89-2,1.89-2.06-.33-2.06-1.89Z"/>
    </g>
  </g>
</svg>