<?xml version="1.0" encoding="UTF-8"?>
<svg id="Capa_2" data-name="Capa 2" xmlns="http://www.w3.org/2000/svg" viewBox="0 0 801 139.78">
  <defs>
    <style>
      .cls-1 {
        fill: #003746;
      }

      .cls-2 {
        fill: none;
        stroke: #fff;
        stroke-linecap: round;
        stroke-linejoin: round;
        stroke-width: 5.33px;
      }

      .cls-3 {
        fill: #fff;
        stroke: #601636;
        stroke-miterlimit: 10;
      }

      .cls-4 {
        fill: #ff1b44;
      }
    </style>
  </defs>
  <g id="Capa_1-2" data-name="Capa 1">
    <g id="_NOPROCESS_S08_03_NB">
      <g>
        <path class="cls-4" d="M680.2.5h101.83c10.19,0,18.47,8.28,18.47,18.47v39.1c0,10.2-8.28,18.47-18.47,18.47h-101.83c-10.19,0-18.47-8.28-18.47-18.47V18.97c0-10.19,8.28-18.47,18.47-18.47Z"/>
        <path class="cls-3" d="M18.96,65.81s.01,0,.02,0h101.83c14.69,0,26.64,11.95,26.64,26.64v28.36c0,10.19,8.29,18.47,18.47,18.47h616.12c10.19,0,18.47-8.29,18.47-18.47v-17.63c0-10.18-8.29-18.47-18.47-18.47h-101.83c-14.69,0-26.64-11.95-26.64-26.64V18.97c0-10.18-8.29-18.47-18.47-18.47H18.97c-10.19,0-18.47,8.29-18.47,18.47v28.36c0,10.18,8.28,18.46,18.46,18.47Z"/>
        <path class="cls-1" d="M.5,120.8c0,10.18,8.29,18.47,18.47,18.47h101.83c10.19,0,18.47-8.29,18.47-18.47v-28.36c0-10.18-8.29-18.47-18.47-18.47H18.97s-.01,0-.02,0c-10.18,0-18.46,8.29-18.46,18.47v28.36Z"/>
        <path class="cls-2" d="M707.4,40.76l11.24,11.24c2.15,2.15,5.63,2.15,7.78,0l28.42-28.57"/>
      </g>
      <g>
        <path class="cls-1" d="M312.21,43.28c0-10.03,6.29-17.04,15.26-17.04,6.72,0,11.9,4.18,13.3,10.56.14.67-.24,1.06-.86,1.06h-3.74c-.58,0-.91-.34-1.01-.91-.58-4.61-2.64-6.24-7.68-6.24-7.01,0-9.36,3.17-9.36,12.58s2.4,12.67,9.36,12.67c4.99,0,6.91-1.44,7.92-6.19.1-.58.43-.86,1.01-.86h3.74c.67,0,1.01.38.82,1.06-1.54,6.34-6.77,10.46-13.49,10.46-9.02,0-15.26-7.01-15.26-17.14Z"/>
        <path class="cls-1" d="M345.32,59.17v-22.56c0-.62.34-.96.96-.96h2.3c.53,0,.91.29,1.06.82l.96,3.12h.19c1.06-2.26,3.36-3.94,7.34-4.18.67-.05,1.01.29,1.01.91v3.12c0,.62-.34.96-.96.96h-2.11c-4.37,0-5.18,1.25-5.18,5.09v13.68c0,.62-.34.96-.96.96h-3.65c-.62,0-.96-.34-.96-.96Z"/>
        <path class="cls-1" d="M362.32,28.69c0-2.5.58-3.02,3.26-3.02s3.36.53,3.36,3.02-.62,3.02-3.36,3.02-3.26-.53-3.26-3.02ZM362.84,59.17v-22.56c0-.62.34-.96.96-.96h3.65c.62,0,.96.34.96.96v22.56c0,.62-.34.96-.96.96h-3.65c-.62,0-.96-.34-.96-.96Z"/>
        <path class="cls-1" d="M376.28,51.44v-11.81h-3.46c-.62,0-.96-.34-.96-.96v-2.06c0-.62.34-.96.96-.96h3.46v-5.23c0-.58.29-.91.86-1.06l3.6-.72c.62-.14,1.06.14,1.06.82v6.19h5.18c.62,0,.96.34.96.96v2.06c0,.62-.34.96-.96.96h-5.18v13.92c0,2.59.29,2.83,3.07,2.83h2.06c.62,0,.96.34.96.96v1.68c0,.53-.24.91-.77,1.06-.91.24-1.92.34-2.78.34-5.23,0-8.06-3.79-8.06-8.98Z"/>
        <path class="cls-1" d="M389.68,47.89c0-7.54,4.66-12.53,11.81-12.53s11.52,4.75,11.52,12.53v.53c0,.62-.34.96-.96.96h-16.66c.19,5.62,1.54,7.01,6,7.01,3.6,0,4.99-.67,5.76-3.02.19-.53.53-.82,1.1-.82h3.41c.67,0,1.06.38.82.96-1.58,4.18-5.66,6.91-10.99,6.91-7.15,0-11.81-4.94-11.81-12.53ZM407.39,46.16c-.19-5.33-1.54-6.77-6-6.77s-5.76,1.34-5.95,6.77h11.95Z"/>
        <path class="cls-1" d="M416.8,59.17v-22.56c0-.62.34-.96.96-.96h2.3c.53,0,.91.29,1.06.82l.96,3.12h.19c1.06-2.26,3.36-3.94,7.34-4.18.67-.05,1.01.29,1.01.91v3.12c0,.62-.34.96-.96.96h-2.11c-4.37,0-5.18,1.25-5.18,5.09v13.68c0,.62-.34.96-.96.96h-3.65c-.62,0-.96-.34-.96-.96Z"/>
        <path class="cls-1" d="M433.79,28.69c0-2.5.58-3.02,3.26-3.02s3.36.53,3.36,3.02-.62,3.02-3.36,3.02-3.26-.53-3.26-3.02ZM434.32,59.17v-22.56c0-.62.34-.96.96-.96h3.65c.62,0,.96.34.96.96v22.56c0,.62-.34.96-.96.96h-3.65c-.62,0-.96-.34-.96-.96Z"/>
        <path class="cls-1" d="M443.68,47.89c0-7.49,4.7-12.53,11.71-12.53s11.71,5.04,11.71,12.53-4.7,12.53-11.71,12.53-11.71-4.99-11.71-12.53ZM461.39,47.89c0-6.86-1.15-8.5-6-8.5s-6,1.63-6,8.5,1.15,8.5,6,8.5,6-1.68,6-8.5Z"/>
        <path class="cls-1" d="M469.88,53.46c-.14-.62.24-1.01.86-1.01h3.07c.58,0,.91.34,1.01.91.43,2.74,1.39,3.26,4.61,3.26s4.13-.67,4.13-3.26c0-2.06-.62-2.64-3.6-3.17l-2.64-.53c-4.94-.96-7.01-3.07-7.01-7.1s3.79-7.2,8.88-7.2c4.7,0,8.02,2.45,8.83,6.38.14.62-.29,1.01-.91,1.01h-3.02c-.58,0-.91-.34-1.01-.91-.38-2.4-1.15-2.69-3.84-2.69-2.98,0-3.7.58-3.7,2.98,0,2.21.58,2.78,3.7,3.36l2.74.53c4.99,1.01,6.77,2.88,6.77,7.01,0,4.56-3.46,7.39-9.12,7.39-5.33,0-9.02-2.64-9.74-6.96Z"/>
        <path class="cls-1" d="M256.77,96.56c0-7.49,3.98-12.48,9.89-12.48,3.07,0,5.86,1.54,7.44,3.98h.19v-11.91c0-.62.34-.96.96-.96h3.65c.62,0,.96.34.96.96v31.68c0,.62-.34.96-.96.96h-2.3c-.53,0-.91-.24-1.1-.77l-.96-2.88h-.14c-1.44,2.4-4.42,3.94-7.73,3.94-5.9,0-9.89-4.99-9.89-12.53ZM274.58,96.56c0-6.86-1.25-8.5-6.1-8.5s-6,1.63-6,8.5,1.2,8.5,6,8.5,6.1-1.68,6.1-8.5Z"/>
        <path class="cls-1" d="M283.65,96.56c0-7.54,4.66-12.53,11.81-12.53s11.52,4.75,11.52,12.53v.53c0,.62-.34.96-.96.96h-16.66c.19,5.62,1.54,7.01,6,7.01,3.6,0,4.99-.67,5.76-3.02.19-.53.53-.82,1.1-.82h3.41c.67,0,1.06.38.82.96-1.58,4.18-5.66,6.91-10.99,6.91-7.15,0-11.81-4.94-11.81-12.53ZM301.36,94.83c-.19-5.33-1.54-6.77-6-6.77s-5.76,1.34-5.95,6.77h11.95Z"/>
        <path class="cls-1" d="M319.55,96.56c0-7.54,4.66-12.53,11.81-12.53s11.52,4.75,11.52,12.53v.53c0,.62-.34.96-.96.96h-16.66c.19,5.62,1.54,7.01,6,7.01,3.6,0,4.99-.67,5.76-3.02.19-.53.53-.82,1.1-.82h3.41c.67,0,1.06.38.82.96-1.58,4.18-5.66,6.91-10.99,6.91-7.15,0-11.81-4.94-11.81-12.53ZM337.26,94.83c-.19-5.33-1.54-6.77-6-6.77s-5.76,1.34-5.95,6.77h11.95Z"/>
        <path class="cls-1" d="M353.01,108.03l-8.3-22.61c-.24-.67.1-1.1.77-1.1h3.84c.53,0,.91.29,1.06.82l6.19,19.59h.19l6.24-19.59c.14-.53.53-.82,1.06-.82h3.6c.67,0,1.06.43.82,1.1l-8.35,22.61c-.19.48-.58.77-1.1.77h-4.9c-.53,0-.91-.24-1.1-.77Z"/>
        <path class="cls-1" d="M370.09,101.74c0-4.7,3.98-7.35,9.99-7.35h4.32c1.06,0,1.44-.38,1.44-1.44v-.24c0-4.03-1.01-4.66-4.56-4.66-3.22,0-4.46.77-4.94,3.26-.14.62-.48.91-1.06.91h-3.31c-.67,0-1.06-.38-.86-1.06,1.15-4.18,5.18-7.15,10.18-7.15,6.1,0,10.08,3.94,10.08,9.84v13.97c0,.62-.34.96-.96.96h-2.3c-.53,0-.91-.29-1.06-.82l-.96-2.98h-.19c-1.68,2.64-4.37,4.08-7.68,4.08-4.46,0-8.11-2.88-8.11-7.34ZM385.84,99.01v-1.1h-5.95c-3.74,0-4.37.72-4.37,3.65s.77,3.65,4.08,3.65c4.32,0,6.24-1.92,6.24-6.19Z"/>
        <path class="cls-1" d="M396.16,100.11v-23.95c0-.62.34-.96.96-.96h3.65c.62,0,.96.34.96.96v26.07c0,2.59.24,2.83,3.07,2.83h.67c.62,0,.96.34.96.96v1.92c0,.53-.14.96-.53,1.01-.43.1-.96.14-1.63.14-5.23,0-8.11-3.79-8.11-8.98Z"/>
        <path class="cls-1" d="M430.19,85.28v22.56c0,.62-.34.96-.96.96h-2.3c-.53,0-.91-.29-1.1-.77l-.91-2.4h-.19c-1.78,2.3-4.22,3.46-7.3,3.46-5.28,0-8.26-3.98-8.26-11.09v-12.72c0-.62.34-.96.96-.96h3.6c.62,0,.96.34.96.96v15.22c0,3.7.96,4.56,4.8,4.56,4.27,0,5.14-.77,5.14-4.56v-15.22c0-.62.34-.96.96-.96h3.65c.62,0,.96.34.96.96Z"/>
        <path class="cls-1" d="M434.56,101.74c0-4.7,3.98-7.35,9.99-7.35h4.32c1.06,0,1.44-.38,1.44-1.44v-.24c0-4.03-1.01-4.66-4.56-4.66-3.22,0-4.46.77-4.94,3.26-.14.62-.48.91-1.06.91h-3.31c-.67,0-1.06-.38-.86-1.06,1.15-4.18,5.18-7.15,10.18-7.15,6.1,0,10.08,3.94,10.08,9.84v13.97c0,.62-.34.96-.96.96h-2.3c-.53,0-.91-.29-1.06-.82l-.96-2.98h-.19c-1.68,2.64-4.37,4.08-7.68,4.08-4.46,0-8.11-2.88-8.11-7.34ZM450.3,99.01v-1.1h-5.95c-3.74,0-4.37.72-4.37,3.65s.77,3.65,4.08,3.65c4.32,0,6.24-1.92,6.24-6.19Z"/>
        <path class="cls-1" d="M459.13,96.56c0-7.49,4.66-12.53,11.71-12.53,5.52,0,9.6,3.17,10.61,7.78.1.67-.29,1.06-.91,1.06h-3.41c-.58,0-.96-.29-1.06-.91-.53-3.02-1.68-3.89-5.18-3.89-4.94,0-6.05,1.63-6.05,8.5s1.15,8.5,6,8.5c3.55,0,4.85-.86,5.47-3.89.1-.58.43-.86,1.01-.86h3.46c.67,0,1.01.38.86.96-1.15,4.66-5.33,7.82-10.75,7.82-7.1,0-11.76-4.99-11.76-12.53Z"/>
        <path class="cls-1" d="M485.1,77.36c0-2.5.58-3.02,3.26-3.02s3.36.53,3.36,3.02-.62,3.02-3.36,3.02-3.26-.53-3.26-3.02ZM485.63,107.84v-22.56c0-.62.34-.96.96-.96h3.65c.62,0,.96.34.96.96v22.56c0,.62-.34.96-.96.96h-3.65c-.62,0-.96-.34-.96-.96Z"/>
        <path class="cls-1" d="M494.99,96.56c0-7.49,4.7-12.53,11.71-12.53s11.71,5.04,11.71,12.53-4.7,12.53-11.71,12.53-11.71-4.99-11.71-12.53ZM512.7,96.56c0-6.86-1.15-8.5-6-8.5s-6,1.63-6,8.5,1.15,8.5,6,8.5,6-1.68,6-8.5ZM504.2,79.56c1.49-1.73,2.74-3.55,3.6-5.47.24-.48.62-.72,1.15-.72h3.94c.77,0,1.1.48.72,1.15-1.54,2.5-3.6,4.9-7.06,7.35-.48.34-.91.34-1.34-.1l-.91-.86c-.43-.38-.48-.86-.1-1.34Z"/>
        <path class="cls-1" d="M522.2,107.84v-22.56c0-.62.34-.96.96-.96h2.3c.53,0,.91.29,1.1.77l.91,2.4h.19c1.78-2.3,4.22-3.46,7.3-3.46,5.28,0,8.26,3.98,8.26,11.09v12.72c0,.62-.34.96-.96.96h-3.6c-.62,0-.96-.34-.96-.96v-15.22c0-3.7-.96-4.56-4.8-4.56-4.27,0-5.14.77-5.14,4.56v15.22c0,.62-.34.96-.96.96h-3.65c-.62,0-.96-.34-.96-.96Z"/>
      </g>
    </g>
  </g>
</svg>