<?xml version="1.0" encoding="UTF-8"?><svg id="Capa_2" xmlns="http://www.w3.org/2000/svg" viewBox="0 0 1024 258"><defs><style>.cls-1{fill:#ff003a;}.cls-2{fill:#fff;stroke:#003746;stroke-miterlimit:10;}.cls-3{fill:#003746;}.cls-4{fill:none;stroke:#fff;stroke-linecap:round;stroke-linejoin:round;stroke-width:4.22px;}</style></defs><path class="cls-2" d="M795.75,168.25v-12.79c0-7.99-6.48-14.46-14.46-14.46h-14.26c-13.8,0-24.99-11.19-24.99-24.99v-2.68c0-12.38-10.04-22.42-22.42-22.42H240.81c-13.8,0-24.99,11.19-24.99,24.99v41.82c0,13.8,11.19,24.99,24.99,24.99h540.47c7.99,0,14.46-6.48,14.46-14.46Z"/><path class="cls-1" d="M802.34,81.01c5.26,5.22,6.34,13.67,6.34,24.76,0,11.09-1.07,19.54-6.33,24.76-5.2,5.17-13.62,6.23-24.65,6.23h-.02c-15.24,0-20.86-2.49-24.63-6.22-5.26-5.22-6.34-13.67-6.34-24.75,0-11.09,1.07-19.54,6.33-24.76,5.2-5.17,13.62-6.23,24.65-6.23h.02c15.24,0,20.86,2.49,24.63,6.22Z"/><line class="cls-4" x1="761.98" y1="121.49" x2="792.04" y2="91.42"/><polyline class="cls-4" points="775.64 90.06 793.4 90.05 793.41 107.81"/><path class="cls-3" d="M276.91,131.4v-7.98h-8.36v7.98c0,.36-.19.55-.55.55h-2.14c-.36,0-.55-.19-.55-.55v-18.09c0-.36.19-.55.55-.55h2.14c.36,0,.55.19.55.55v7.57h8.36v-7.57c0-.36.19-.55.55-.55h2.14c.36,0,.55.19.55.55v18.09c0,.36-.19.55-.55.55h-2.14c-.36,0-.55-.19-.55-.55Z"/><path class="cls-3" d="M282.75,127.92c0-2.69,2.28-4.19,5.7-4.19h2.47c.6,0,.82-.22.82-.82v-.14c0-2.3-.58-2.66-2.6-2.66-1.84,0-2.55.44-2.82,1.86-.08.36-.27.52-.6.52h-1.89c-.38,0-.6-.22-.49-.6.66-2.39,2.96-4.08,5.81-4.08,3.48,0,5.76,2.25,5.76,5.62v7.98c0,.36-.19.55-.55.55h-1.32c-.3,0-.52-.16-.6-.47l-.55-1.7h-.11c-.96,1.51-2.49,2.33-4.39,2.33-2.55,0-4.63-1.65-4.63-4.19ZM291.74,126.36v-.63h-3.4c-2.14,0-2.49.41-2.49,2.08s.44,2.08,2.33,2.08c2.47,0,3.56-1.1,3.56-3.54Z"/><path class="cls-3" d="M297.12,131.4v-.85c0-.27.08-.47.25-.69l7.4-9.51v-.11h-6.69c-.36,0-.55-.19-.55-.55v-1.18c0-.36.19-.55.55-.55h10.03c.36,0,.55.19.55.55v.85c0,.27-.08.47-.25.69l-7.37,9.51v.11h7.21c.36,0,.55.19.55.55v1.18c0,.36-.19.55-.55.55h-10.58c-.36,0-.55-.19-.55-.55Z"/><path class="cls-3" d="M316.31,124.96c0-4.28,2.66-7.15,6.69-7.15,3.15,0,5.48,1.81,6.06,4.44.06.38-.16.6-.52.6h-1.95c-.33,0-.55-.16-.6-.52-.3-1.73-.96-2.22-2.96-2.22-2.82,0-3.45.93-3.45,4.85s.66,4.85,3.43,4.85c2.03,0,2.77-.49,3.13-2.22.05-.33.25-.49.58-.49h1.97c.38,0,.58.22.49.55-.66,2.66-3.04,4.47-6.14,4.47-4.06,0-6.72-2.85-6.72-7.15Z"/><path class="cls-3" d="M331.45,126.99v-13.68c0-.36.19-.55.55-.55h2.08c.36,0,.55.19.55.55v14.89c0,1.48.14,1.62,1.75,1.62h.38c.36,0,.55.19.55.55v1.1c0,.3-.08.55-.3.58-.25.05-.55.08-.93.08-2.99,0-4.63-2.17-4.63-5.13Z"/><path class="cls-3" d="M338.85,113.99c0-1.43.33-1.73,1.86-1.73s1.92.3,1.92,1.73-.36,1.73-1.92,1.73-1.86-.3-1.86-1.73ZM339.15,131.4v-12.88c0-.36.19-.55.55-.55h2.08c.36,0,.55.19.55.55v12.88c0,.36-.19.55-.55.55h-2.08c-.36,0-.55-.19-.55-.55Z"/><path class="cls-3" d="M344.5,124.96c0-4.28,2.66-7.15,6.69-7.15,3.15,0,5.48,1.81,6.06,4.44.06.38-.16.6-.52.6h-1.95c-.33,0-.55-.16-.6-.52-.3-1.73-.96-2.22-2.96-2.22-2.82,0-3.45.93-3.45,4.85s.66,4.85,3.43,4.85c2.03,0,2.77-.49,3.13-2.22.05-.33.25-.49.58-.49h1.97c.38,0,.58.22.49.55-.66,2.66-3.04,4.47-6.14,4.47-4.06,0-6.72-2.85-6.72-7.15Z"/><path class="cls-3" d="M364.65,124.96c0-4.3,2.66-7.15,6.74-7.15s6.58,2.71,6.58,7.15v.3c0,.36-.19.55-.55.55h-9.51c.11,3.21.88,4,3.43,4,2.06,0,2.85-.38,3.29-1.73.11-.3.3-.47.63-.47h1.95c.38,0,.6.22.47.55-.9,2.39-3.23,3.95-6.28,3.95-4.08,0-6.74-2.82-6.74-7.15ZM374.77,123.97c-.11-3.04-.88-3.87-3.43-3.87s-3.29.77-3.4,3.87h6.83Z"/><path class="cls-3" d="M380.14,131.4v-12.88c0-.36.19-.55.55-.55h1.32c.3,0,.52.16.63.44l.52,1.37h.11c1.01-1.32,2.41-1.97,4.17-1.97,3.02,0,4.71,2.28,4.71,6.33v7.26c0,.36-.19.55-.55.55h-2.06c-.36,0-.55-.19-.55-.55v-8.69c0-2.11-.55-2.6-2.74-2.6-2.44,0-2.93.44-2.93,2.6v8.69c0,.36-.19.55-.55.55h-2.08c-.36,0-.55-.19-.55-.55Z"/><path class="cls-3" d="M399.91,124.96c0-4.3,2.66-7.15,6.74-7.15s6.58,2.71,6.58,7.15v.3c0,.36-.19.55-.55.55h-9.51c.11,3.21.88,4,3.43,4,2.06,0,2.85-.38,3.29-1.73.11-.3.3-.47.63-.47h1.95c.38,0,.6.22.47.55-.9,2.39-3.23,3.95-6.28,3.95-4.08,0-6.74-2.82-6.74-7.15ZM410.03,123.97c-.11-3.04-.88-3.87-3.43-3.87s-3.29.77-3.4,3.87h6.83Z"/><path class="cls-3" d="M415.4,126.99v-13.68c0-.36.19-.55.55-.55h2.08c.36,0,.55.19.55.55v14.89c0,1.48.14,1.62,1.75,1.62h.38c.36,0,.55.19.55.55v1.1c0,.3-.08.55-.3.58-.25.05-.55.08-.93.08-2.99,0-4.63-2.17-4.63-5.13Z"/><path class="cls-3" d="M432.1,129.87h-.08l-.55,1.65c-.11.3-.33.44-.63.44h-1.32c-.36,0-.55-.19-.55-.55v-18.09c0-.36.19-.55.55-.55h2.08c.36,0,.55.19.55.55v6.8h.11c.91-1.4,2.49-2.28,4.25-2.28,3.37,0,5.65,2.85,5.65,7.13s-2.28,7.15-5.65,7.15c-1.89,0-3.59-.88-4.41-2.25ZM438.9,124.96c0-3.92-.66-4.85-3.43-4.85s-3.48.93-3.48,4.85.71,4.85,3.48,4.85,3.43-.96,3.43-4.85Z"/><path class="cls-3" d="M443.48,124.96c0-4.28,2.69-7.15,6.69-7.15s6.69,2.88,6.69,7.15-2.69,7.15-6.69,7.15-6.69-2.85-6.69-7.15ZM453.6,124.96c0-3.92-.66-4.85-3.43-4.85s-3.43.93-3.43,4.85.66,4.85,3.43,4.85,3.43-.96,3.43-4.85Z"/><path class="cls-3" d="M460.51,126.99v-6.74h-1.97c-.36,0-.55-.19-.55-.55v-1.18c0-.36.19-.55.55-.55h1.97v-2.99c0-.33.16-.52.49-.6l2.06-.41c.36-.08.6.08.6.47v3.54h2.96c.36,0,.55.19.55.55v1.18c0,.36-.19.55-.55.55h-2.96v7.95c0,1.48.16,1.62,1.75,1.62h1.18c.36,0,.55.19.55.55v.96c0,.3-.14.52-.44.6-.52.14-1.1.19-1.59.19-2.99,0-4.6-2.17-4.6-5.13Z"/><path class="cls-3" d="M468.16,124.96c0-4.28,2.69-7.15,6.69-7.15s6.69,2.88,6.69,7.15-2.69,7.15-6.69,7.15-6.69-2.85-6.69-7.15ZM478.27,124.96c0-3.92-.66-4.85-3.43-4.85s-3.43.93-3.43,4.85.66,4.85,3.43,4.85,3.43-.96,3.43-4.85ZM473.42,115.25c.85-.99,1.56-2.03,2.06-3.12.14-.27.36-.41.66-.41h2.25c.44,0,.63.27.41.66-.88,1.43-2.06,2.8-4.03,4.19-.27.19-.52.19-.77-.05l-.52-.49c-.25-.22-.27-.49-.05-.77Z"/><path class="cls-3" d="M483.7,131.4v-12.88c0-.36.19-.55.55-.55h1.32c.3,0,.52.16.63.44l.52,1.37h.11c1.01-1.32,2.41-1.97,4.17-1.97,3.02,0,4.71,2.28,4.71,6.33v7.26c0,.36-.19.55-.55.55h-2.06c-.36,0-.55-.19-.55-.55v-8.69c0-2.11-.55-2.6-2.74-2.6-2.44,0-2.93.44-2.93,2.6v8.69c0,.36-.19.55-.55.55h-2.08c-.36,0-.55-.19-.55-.55Z"/><path class="cls-3" d="M517.51,124.96c0,4.3-2.28,7.15-5.65,7.15-1.75,0-3.35-.88-4.25-2.3h-.11v6.8c0,.36-.19.55-.55.55h-2.08c-.36,0-.55-.19-.55-.55v-18.09c0-.36.19-.55.55-.55h1.32c.3,0,.52.14.63.44l.55,1.67h.08c.82-1.37,2.52-2.28,4.41-2.28,3.37,0,5.65,2.88,5.65,7.15ZM507.34,124.96c0,3.92.71,4.85,3.48,4.85s3.43-.93,3.43-4.85-.69-4.85-3.43-4.85-3.48.96-3.48,4.85Z"/><path class="cls-3" d="M519.16,127.92c0-2.69,2.28-4.19,5.7-4.19h2.47c.6,0,.82-.22.82-.82v-.14c0-2.3-.58-2.66-2.6-2.66-1.84,0-2.55.44-2.82,1.86-.08.36-.27.52-.6.52h-1.89c-.38,0-.6-.22-.49-.6.66-2.39,2.96-4.08,5.81-4.08,3.48,0,5.76,2.25,5.76,5.62v7.98c0,.36-.19.55-.55.55h-1.32c-.3,0-.52-.16-.6-.47l-.55-1.7h-.11c-.96,1.51-2.49,2.33-4.39,2.33-2.55,0-4.63-1.65-4.63-4.19ZM528.15,126.36v-.63h-3.4c-2.14,0-2.5.41-2.5,2.08s.44,2.08,2.33,2.08c2.47,0,3.56-1.1,3.56-3.54Z"/><path class="cls-3" d="M534.05,131.4v-12.88c0-.36.19-.55.55-.55h1.32c.3,0,.52.16.6.47l.55,1.78h.11c.6-1.29,1.92-2.25,4.19-2.39.38-.03.58.16.58.52v1.78c0,.36-.19.55-.55.55h-1.21c-2.49,0-2.96.71-2.96,2.91v7.81c0,.36-.19.55-.55.55h-2.08c-.36,0-.55-.19-.55-.55Z"/><path class="cls-3" d="M542.74,127.92c0-2.69,2.28-4.19,5.7-4.19h2.47c.6,0,.82-.22.82-.82v-.14c0-2.3-.58-2.66-2.6-2.66-1.84,0-2.55.44-2.82,1.86-.08.36-.27.52-.6.52h-1.89c-.38,0-.6-.22-.49-.6.66-2.39,2.96-4.08,5.81-4.08,3.48,0,5.76,2.25,5.76,5.62v7.98c0,.36-.19.55-.55.55h-1.32c-.3,0-.52-.16-.6-.47l-.55-1.7h-.11c-.96,1.51-2.49,2.33-4.39,2.33-2.55,0-4.63-1.65-4.63-4.19ZM551.73,126.36v-.63h-3.4c-2.14,0-2.5.41-2.5,2.08s.44,2.08,2.33,2.08c2.47,0,3.56-1.1,3.56-3.54Z"/><path class="cls-3" d="M563.5,131.4v-12.88c0-.36.19-.55.55-.55h1.32c.3,0,.52.16.6.47l.55,1.78h.11c.6-1.29,1.92-2.25,4.19-2.39.38-.03.58.16.58.52v1.78c0,.36-.19.55-.55.55h-1.21c-2.49,0-2.96.71-2.96,2.91v7.81c0,.36-.19.55-.55.55h-2.08c-.36,0-.55-.19-.55-.55Z"/><path class="cls-3" d="M572.54,124.96c0-4.3,2.66-7.15,6.74-7.15s6.58,2.71,6.58,7.15v.3c0,.36-.19.55-.55.55h-9.51c.11,3.21.88,4,3.43,4,2.06,0,2.85-.38,3.29-1.73.11-.3.3-.47.63-.47h1.95c.38,0,.6.22.47.55-.9,2.39-3.23,3.95-6.28,3.95-4.08,0-6.74-2.82-6.74-7.15ZM582.66,123.97c-.11-3.04-.88-3.87-3.43-3.87s-3.29.77-3.4,3.87h6.83Z"/><path class="cls-3" d="M601.22,124.96c0,4.3-2.28,7.15-5.65,7.15-1.75,0-3.35-.88-4.25-2.3h-.11v6.8c0,.36-.19.55-.55.55h-2.08c-.36,0-.55-.19-.55-.55v-18.09c0-.36.19-.55.55-.55h1.32c.3,0,.52.14.63.44l.55,1.67h.08c.82-1.37,2.52-2.28,4.41-2.28,3.37,0,5.65,2.88,5.65,7.15ZM591.05,124.96c0,3.92.71,4.85,3.48,4.85s3.43-.93,3.43-4.85-.69-4.85-3.43-4.85-3.48.96-3.48,4.85Z"/><path class="cls-3" d="M603.39,131.4v-12.88c0-.36.19-.55.55-.55h1.32c.3,0,.52.16.6.47l.55,1.78h.11c.6-1.29,1.92-2.25,4.19-2.39.38-.03.58.16.58.52v1.78c0,.36-.19.55-.55.55h-1.21c-2.49,0-2.96.71-2.96,2.91v7.81c0,.36-.19.55-.55.55h-2.08c-.36,0-.55-.19-.55-.55Z"/><path class="cls-3" d="M612.44,124.96c0-4.28,2.69-7.15,6.69-7.15s6.69,2.88,6.69,7.15-2.69,7.15-6.69,7.15-6.69-2.85-6.69-7.15ZM622.56,124.96c0-3.92-.66-4.85-3.43-4.85s-3.43.93-3.43,4.85.66,4.85,3.43,4.85,3.43-.96,3.43-4.85Z"/><path class="cls-3" d="M627.14,124.96c0-4.28,2.28-7.13,5.65-7.13,1.75,0,3.34.88,4.25,2.28h.11v-6.8c0-.36.19-.55.55-.55h2.08c.36,0,.55.19.55.55v18.09c0,.36-.19.55-.55.55h-1.32c-.3,0-.52-.14-.63-.44l-.55-1.65h-.08c-.82,1.37-2.52,2.25-4.41,2.25-3.37,0-5.65-2.85-5.65-7.15ZM637.31,124.96c0-3.92-.71-4.85-3.48-4.85s-3.43.93-3.43,4.85.69,4.85,3.43,4.85,3.48-.96,3.48-4.85Z"/><path class="cls-3" d="M655.08,118.52v12.88c0,.36-.19.55-.55.55h-1.32c-.3,0-.52-.16-.63-.44l-.52-1.37h-.11c-1.01,1.32-2.41,1.97-4.17,1.97-3.02,0-4.71-2.28-4.71-6.33v-7.26c0-.36.19-.55.55-.55h2.06c.36,0,.55.19.55.55v8.69c0,2.11.55,2.6,2.74,2.6,2.44,0,2.93-.44,2.93-2.6v-8.69c0-.36.19-.55.55-.55h2.08c.36,0,.55.19.55.55Z"/><path class="cls-3" d="M657.24,124.96c0-4.28,2.66-7.15,6.69-7.15,3.15,0,5.48,1.81,6.06,4.44.06.38-.16.6-.52.6h-1.95c-.33,0-.55-.16-.6-.52-.3-1.73-.96-2.22-2.96-2.22-2.82,0-3.45.93-3.45,4.85s.66,4.85,3.43,4.85c2.03,0,2.77-.49,3.13-2.22.05-.33.25-.49.58-.49h1.97c.38,0,.58.22.49.55-.66,2.66-3.04,4.47-6.14,4.47-4.06,0-6.72-2.85-6.72-7.15Z"/><path class="cls-3" d="M672.08,113.99c0-1.43.33-1.73,1.86-1.73s1.92.3,1.92,1.73-.36,1.73-1.92,1.73-1.86-.3-1.86-1.73ZM672.38,131.4v-12.88c0-.36.19-.55.55-.55h2.08c.36,0,.55.19.55.55v12.88c0,.36-.19.55-.55.55h-2.08c-.36,0-.55-.19-.55-.55Z"/><path class="cls-3" d="M678.58,131.4v-12.88c0-.36.19-.55.55-.55h1.32c.3,0,.52.16.6.47l.55,1.78h.11c.6-1.29,1.92-2.25,4.19-2.39.38-.03.58.16.58.52v1.78c0,.36-.19.55-.55.55h-1.21c-2.49,0-2.96.71-2.96,2.91v7.81c0,.36-.19.55-.55.55h-2.08c-.36,0-.55-.19-.55-.55Z"/><path class="cls-3" d="M693.6,124.96c0-4.3,2.66-7.15,6.74-7.15s6.58,2.71,6.58,7.15v.3c0,.36-.19.55-.55.55h-9.51c.11,3.21.88,4,3.43,4,2.06,0,2.85-.38,3.29-1.73.11-.3.3-.47.63-.47h1.95c.38,0,.6.22.47.55-.9,2.39-3.23,3.95-6.28,3.95-4.08,0-6.74-2.82-6.74-7.15ZM703.72,123.97c-.11-3.04-.88-3.87-3.43-3.87s-3.29.77-3.4,3.87h6.83Z"/><path class="cls-3" d="M709.1,126.99v-13.68c0-.36.19-.55.55-.55h2.08c.36,0,.55.19.55.55v14.89c0,1.48.14,1.62,1.75,1.62h.38c.36,0,.55.19.55.55v1.1c0,.3-.08.55-.3.58-.25.05-.55.08-.93.08-2.99,0-4.63-2.17-4.63-5.13Z"/><path class="cls-3" d="M345.07,156.44c0-2.69,2.28-4.19,5.7-4.19h2.47c.6,0,.82-.22.82-.82v-.14c0-2.3-.58-2.66-2.6-2.66-1.84,0-2.55.44-2.82,1.86-.08.36-.27.52-.6.52h-1.89c-.38,0-.6-.22-.49-.6.66-2.39,2.96-4.08,5.81-4.08,3.48,0,5.76,2.25,5.76,5.62v7.98c0,.36-.19.55-.55.55h-1.32c-.3,0-.52-.16-.6-.47l-.55-1.7h-.11c-.96,1.51-2.49,2.33-4.39,2.33-2.55,0-4.63-1.65-4.63-4.19ZM354.07,154.87v-.63h-3.4c-2.14,0-2.49.41-2.49,2.08s.44,2.08,2.33,2.08c2.47,0,3.56-1.1,3.56-3.54Z"/><path class="cls-3" d="M371.7,147.03v12.88c0,.36-.19.55-.55.55h-1.32c-.3,0-.52-.16-.63-.44l-.52-1.37h-.11c-1.01,1.32-2.41,1.97-4.17,1.97-3.02,0-4.71-2.28-4.71-6.33v-7.26c0-.36.19-.55.55-.55h2.06c.36,0,.55.19.55.55v8.69c0,2.11.55,2.6,2.74,2.6,2.44,0,2.93-.44,2.93-2.6v-8.69c0-.36.19-.55.55-.55h2.08c.36,0,.55.19.55.55Z"/><path class="cls-3" d="M373.87,153.48c0-4.28,2.28-7.13,5.65-7.13,1.75,0,3.34.88,4.25,2.28h.11v-6.8c0-.36.19-.55.55-.55h2.08c.36,0,.55.19.55.55v18.09c0,.36-.19.55-.55.55h-1.32c-.3,0-.52-.14-.63-.44l-.55-1.65h-.08c-.82,1.37-2.52,2.25-4.41,2.25-3.37,0-5.65-2.85-5.65-7.15ZM384.04,153.48c0-3.92-.71-4.85-3.48-4.85s-3.43.93-3.43,4.85.69,4.85,3.43,4.85,3.48-.96,3.48-4.85Z"/><path class="cls-3" d="M389.77,142.51c0-1.43.33-1.73,1.86-1.73s1.92.3,1.92,1.73-.36,1.73-1.92,1.73-1.86-.3-1.86-1.73ZM390.07,159.92v-12.88c0-.36.19-.55.55-.55h2.08c.36,0,.55.19.55.55v12.88c0,.36-.19.55-.55.55h-2.08c-.36,0-.55-.19-.55-.55Z"/><path class="cls-3" d="M395.42,153.48c0-4.28,2.69-7.15,6.69-7.15s6.69,2.88,6.69,7.15-2.69,7.15-6.69,7.15-6.69-2.85-6.69-7.15ZM405.53,153.48c0-3.92-.66-4.85-3.43-4.85s-3.43.93-3.43,4.85.66,4.85,3.43,4.85,3.43-.96,3.43-4.85Z"/><path class="cls-3" d="M419.24,165.04l1.81-4.69-5.21-13.24c-.14-.38.03-.63.44-.63h2.14c.3,0,.52.14.63.44l3.54,10.42h.11l3.54-10.42c.11-.3.33-.44.63-.44h2.06c.41,0,.58.25.44.63l-7.1,18.12c-.11.27-.33.44-.63.44h-1.95c-.41,0-.58-.25-.44-.63Z"/><path class="cls-3" d="M436.68,156.65c-.08-.36.14-.58.49-.58h1.75c.33,0,.52.19.58.52.25,1.56.8,1.86,2.63,1.86s2.36-.38,2.36-1.86c0-1.18-.36-1.51-2.06-1.81l-1.51-.3c-2.82-.55-4-1.75-4-4.06s2.16-4.11,5.07-4.11c2.69,0,4.58,1.4,5.04,3.65.08.36-.16.58-.52.58h-1.73c-.33,0-.52-.19-.58-.52-.22-1.37-.66-1.53-2.19-1.53-1.7,0-2.11.33-2.11,1.7,0,1.26.33,1.59,2.11,1.92l1.56.3c2.85.58,3.87,1.65,3.87,4,0,2.6-1.97,4.22-5.21,4.22-3.04,0-5.15-1.51-5.57-3.98Z"/><path class="cls-3" d="M448.99,153.48c0-4.3,2.66-7.15,6.74-7.15s6.58,2.71,6.58,7.15v.3c0,.36-.19.55-.55.55h-9.51c.11,3.21.88,4,3.43,4,2.06,0,2.85-.38,3.29-1.73.11-.3.3-.47.63-.47h1.95c.38,0,.6.22.47.55-.9,2.39-3.23,3.95-6.28,3.95-4.08,0-6.74-2.82-6.74-7.15ZM459.11,152.49c-.11-3.04-.88-3.87-3.43-3.87s-3.29.77-3.4,3.87h6.83Z"/><path class="cls-3" d="M464.1,161.97c-.14-.38.08-.63.47-.63h2c.33,0,.52.16.63.47.41,1.32,1.18,1.73,3.18,1.73,2.63,0,3.26-.85,3.26-3.07v-2.41h-.11c-.91,1.4-2.49,2.28-4.25,2.28-3.37,0-5.65-2.8-5.65-6.99s2.28-7.02,5.65-7.02c1.89,0,3.56.9,4.41,2.28h.08l.55-1.67c.11-.3.33-.44.63-.44h1.32c.36,0,.55.19.55.55v12.88c0,3.56-2.82,5.92-6.44,5.92-3.02,0-5.34-1.48-6.28-3.86ZM473.81,153.34c0-3.78-.71-4.72-3.48-4.72s-3.43.93-3.43,4.72.63,4.71,3.43,4.71,3.48-.93,3.48-4.71Z"/><path class="cls-3" d="M491.57,147.03v12.88c0,.36-.19.55-.55.55h-1.32c-.3,0-.52-.16-.63-.44l-.52-1.37h-.11c-1.01,1.32-2.41,1.97-4.17,1.97-3.02,0-4.71-2.28-4.71-6.33v-7.26c0-.36.19-.55.55-.55h2.06c.36,0,.55.19.55.55v8.69c0,2.11.55,2.6,2.74,2.6,2.44,0,2.93-.44,2.93-2.6v-8.69c0-.36.19-.55.55-.55h2.08c.36,0,.55.19.55.55Z"/><path class="cls-3" d="M494.29,142.51c0-1.43.33-1.73,1.86-1.73s1.92.3,1.92,1.73-.36,1.73-1.92,1.73-1.86-.3-1.86-1.73ZM494.59,159.92v-12.88c0-.36.19-.55.55-.55h2.08c.36,0,.55.19.55.55v12.88c0,.36-.19.55-.55.55h-2.08c-.36,0-.55-.19-.55-.55Z"/><path class="cls-3" d="M500.79,159.92v-12.88c0-.36.19-.55.55-.55h1.32c.3,0,.52.16.6.47l.55,1.78h.11c.6-1.29,1.92-2.25,4.19-2.39.38-.03.58.16.58.52v1.78c0,.36-.19.55-.55.55h-1.21c-2.49,0-2.96.71-2.96,2.91v7.81c0,.36-.19.55-.55.55h-2.08c-.36,0-.55-.19-.55-.55Z"/><path class="cls-3" d="M516.67,155.5v-13.68c0-.36.19-.55.55-.55h2.08c.36,0,.55.19.55.55v14.89c0,1.48.14,1.62,1.75,1.62h.38c.36,0,.55.19.55.55v1.1c0,.3-.08.55-.3.58-.25.05-.55.08-.93.08-2.99,0-4.63-2.17-4.63-5.13Z"/><path class="cls-3" d="M523.85,156.44c0-2.69,2.28-4.19,5.7-4.19h2.47c.6,0,.82-.22.82-.82v-.14c0-2.3-.58-2.66-2.6-2.66-1.84,0-2.55.44-2.82,1.86-.08.36-.27.52-.6.52h-1.89c-.38,0-.6-.22-.49-.6.66-2.39,2.96-4.08,5.81-4.08,3.48,0,5.76,2.25,5.76,5.62v7.98c0,.36-.19.55-.55.55h-1.32c-.3,0-.52-.16-.6-.47l-.55-1.7h-.11c-.96,1.51-2.49,2.33-4.39,2.33-2.55,0-4.63-1.65-4.63-4.19ZM532.84,154.87v-.63h-3.4c-2.14,0-2.5.41-2.5,2.08s.44,2.08,2.33,2.08c2.47,0,3.56-1.1,3.56-3.54Z"/><path class="cls-3" d="M544.61,155.5v-13.68c0-.36.19-.55.55-.55h2.08c.36,0,.55.19.55.55v14.89c0,1.48.14,1.62,1.75,1.62h.38c.36,0,.55.19.55.55v1.1c0,.3-.08.55-.3.58-.25.05-.55.08-.93.08-2.99,0-4.63-2.17-4.63-5.13Z"/><path class="cls-3" d="M551.35,153.48c0-4.3,2.66-7.15,6.74-7.15s6.58,2.71,6.58,7.15v.3c0,.36-.19.55-.55.55h-9.51c.11,3.21.88,4,3.43,4,2.06,0,2.85-.38,3.29-1.73.11-.3.3-.47.63-.47h1.95c.38,0,.6.22.47.55-.9,2.39-3.23,3.95-6.28,3.95-4.08,0-6.74-2.82-6.74-7.15ZM561.47,152.49c-.11-3.04-.88-3.87-3.43-3.87s-3.29.77-3.4,3.87h6.83Z"/><path class="cls-3" d="M565.99,153.48c0-4.28,2.66-7.15,6.69-7.15,3.15,0,5.48,1.81,6.06,4.44.06.38-.16.6-.52.6h-1.95c-.33,0-.55-.16-.6-.52-.3-1.73-.96-2.22-2.96-2.22-2.82,0-3.45.93-3.45,4.85s.66,4.85,3.43,4.85c2.03,0,2.77-.49,3.13-2.22.05-.33.25-.49.58-.49h1.97c.38,0,.58.22.49.55-.66,2.66-3.04,4.47-6.14,4.47-4.06,0-6.72-2.85-6.72-7.15Z"/><path class="cls-3" d="M582.61,155.5v-6.74h-1.97c-.36,0-.55-.19-.55-.55v-1.18c0-.36.19-.55.55-.55h1.97v-2.99c0-.33.16-.52.49-.6l2.06-.41c.36-.08.6.08.6.47v3.54h2.96c.36,0,.55.19.55.55v1.18c0,.36-.19.55-.55.55h-2.96v7.95c0,1.48.16,1.62,1.75,1.62h1.18c.36,0,.55.19.55.55v.96c0,.3-.14.52-.44.6-.52.14-1.1.19-1.59.19-2.99,0-4.6-2.17-4.6-5.13Z"/><path class="cls-3" d="M603.34,147.03v12.88c0,.36-.19.55-.55.55h-1.32c-.3,0-.52-.16-.63-.44l-.52-1.37h-.11c-1.01,1.32-2.41,1.97-4.17,1.97-3.02,0-4.71-2.28-4.71-6.33v-7.26c0-.36.19-.55.55-.55h2.06c.36,0,.55.19.55.55v8.69c0,2.11.55,2.6,2.74,2.6,2.44,0,2.93-.44,2.93-2.6v-8.69c0-.36.19-.55.55-.55h2.08c.36,0,.55.19.55.55Z"/><path class="cls-3" d="M606.36,159.92v-12.88c0-.36.19-.55.55-.55h1.32c.3,0,.52.16.6.47l.55,1.78h.11c.6-1.29,1.92-2.25,4.19-2.39.38-.03.58.16.58.52v1.78c0,.36-.19.55-.55.55h-1.21c-2.49,0-2.96.71-2.96,2.91v7.81c0,.36-.19.55-.55.55h-2.08c-.36,0-.55-.19-.55-.55Z"/><path class="cls-3" d="M615.05,156.44c0-2.69,2.28-4.19,5.7-4.19h2.47c.6,0,.82-.22.82-.82v-.14c0-2.3-.58-2.66-2.6-2.66-1.84,0-2.55.44-2.82,1.86-.08.36-.27.52-.6.52h-1.89c-.38,0-.6-.22-.49-.6.66-2.39,2.96-4.08,5.81-4.08,3.48,0,5.76,2.25,5.76,5.62v7.98c0,.36-.19.55-.55.55h-1.32c-.3,0-.52-.16-.6-.47l-.55-1.7h-.11c-.96,1.51-2.49,2.33-4.39,2.33-2.55,0-4.63-1.65-4.63-4.19ZM624.04,154.87v-.63h-3.4c-2.14,0-2.5.41-2.5,2.08s.44,2.08,2.33,2.08c2.47,0,3.56-1.1,3.56-3.54Z"/><path class="cls-3" d="M629.66,158.68c0-1.51.36-1.84,2.03-1.84s1.97.33,1.97,1.84-.36,1.86-1.97,1.86-2.03-.33-2.03-1.86Z"/></svg>