<?xml version="1.0" encoding="UTF-8"?>
<svg id="Capa_2" data-name="Capa 2" xmlns="http://www.w3.org/2000/svg" viewBox="0 0 1300.69 412.51">
  <defs>
    <style>
      .cls-1 {
        fill: #fff;
      }

      .cls-2 {
        fill: #003746;
      }

      .cls-3 {
        fill: #ff1b44;
      }
    </style>
  </defs>
  <g id="Capa_1-2" data-name="Capa 1">
    <g>
      <g>
        <path class="cls-3" d="M1299.77,206.58v-1.6H307.13c-15.68,0-28.38-12.71-28.38-28.38v-29.26c0-15.94-12.92-28.86-28.86-28.86H.46V0h1300.23l-.93,204.98"/>
        <path class="cls-2" d="M1299.77,204.98H307.13c-15.68,0-28.38-12.71-28.38-28.38v-29.26c0-15.94-12.92-28.86-28.86-28.86H.46V0l-.46,327.05h51.12c11.14,0,20.18,9.03,20.18,20.18v9.5c0,11.14,9.03,20.18,20.18,20.18h414.26c11.14,0,20.18-9.03,20.18-20.18v-9.5c0-11.14,9.03-20.18,20.18-20.18h529.4c11.14,0,20.18,9.03,20.18,20.18v45.11c0,11.14,9.03,20.18,20.18,20.18h183.91v-207.53Z"/>
      </g>
      <g>
        <path class="cls-1" d="M535.88,131.24c0-11.38,7.04-19.52,17.49-19.52,7.86,0,13.86,5,15.23,11.88.17.77-.27,1.21-.99,1.21h-4.34c-.66,0-1.04-.33-1.21-.99-1.1-5.17-3.36-6.98-8.69-6.98-8.08,0-10.72,3.68-10.72,14.41s2.69,14.52,10.89,14.52c7.09,0,9.79-2.75,10.17-10.56h-9.84c-.71,0-1.1-.38-1.1-1.1v-2.64c0-.72.39-1.1,1.1-1.1h15.18c.71,0,1.1.38,1.1,1.1v.55c0,11.38-6.38,18.86-16.77,18.86s-17.49-8.14-17.49-19.63Z"/>
        <path class="cls-1" d="M598.41,123.6v25.85c0,.71-.39,1.1-1.1,1.1h-2.64c-.61,0-1.04-.33-1.27-.88l-1.04-2.75h-.22c-2.04,2.64-4.84,3.96-8.36,3.96-6.05,0-9.46-4.56-9.46-12.7v-14.57c0-.71.38-1.1,1.1-1.1h4.12c.71,0,1.1.38,1.1,1.1v17.43c0,4.23,1.1,5.22,5.5,5.22,4.89,0,5.88-.88,5.88-5.22v-17.43c0-.71.39-1.1,1.1-1.1h4.18c.71,0,1.1.38,1.1,1.1Z"/>
        <path class="cls-1" d="M604.47,149.44v-25.85c0-.71.39-1.1,1.1-1.1h4.18c.72,0,1.1.38,1.1,1.1v25.85c0,.71-.38,1.1-1.1,1.1h-4.18c-.71,0-1.1-.38-1.1-1.1ZM604.8,117.05c1.7-1.98,3.13-4.07,4.12-6.27.28-.55.71-.83,1.32-.83h4.51c.88,0,1.26.55.82,1.32-1.76,2.86-4.12,5.61-8.08,8.41-.55.38-1.04.38-1.54-.11l-1.04-.99c-.5-.44-.55-.99-.11-1.54Z"/>
        <path class="cls-1" d="M615.85,142.46c0-5.39,4.56-8.41,11.44-8.41h4.95c1.21,0,1.65-.44,1.65-1.65v-.28c0-4.62-1.16-5.33-5.22-5.33-3.68,0-5.11.88-5.66,3.74-.17.71-.55,1.04-1.21,1.04h-3.79c-.77,0-1.21-.44-.99-1.21,1.32-4.78,5.94-8.19,11.66-8.19,6.98,0,11.55,4.51,11.55,11.27v16c0,.71-.38,1.1-1.1,1.1h-2.64c-.6,0-1.04-.33-1.21-.93l-1.1-3.41h-.22c-1.92,3.03-5,4.67-8.8,4.67-5.11,0-9.29-3.3-9.29-8.41ZM633.89,139.32v-1.26h-6.82c-4.29,0-5,.83-5,4.18s.88,4.18,4.67,4.18c4.95,0,7.15-2.2,7.15-7.09Z"/>
        <path class="cls-1" d="M655.78,136.52c0-8.58,4.56-14.3,11.33-14.3,3.52,0,6.71,1.76,8.52,4.56h.22v-13.64c0-.71.38-1.1,1.1-1.1h4.18c.71,0,1.1.38,1.1,1.1v36.3c0,.71-.39,1.1-1.1,1.1h-2.64c-.61,0-1.04-.28-1.27-.88l-1.1-3.3h-.17c-1.65,2.75-5.06,4.51-8.85,4.51-6.76,0-11.33-5.72-11.33-14.35ZM676.18,136.52c0-7.86-1.43-9.73-6.98-9.73s-6.87,1.87-6.87,9.73,1.38,9.73,6.87,9.73,6.98-1.92,6.98-9.73Z"/>
        <path class="cls-1" d="M686.58,136.52c0-8.63,5.33-14.35,13.53-14.35s13.2,5.44,13.2,14.35v.61c0,.71-.39,1.1-1.1,1.1h-19.08c.22,6.43,1.76,8.03,6.88,8.03,4.12,0,5.72-.77,6.6-3.46.22-.6.6-.93,1.26-.93h3.9c.77,0,1.21.44.94,1.1-1.81,4.78-6.49,7.92-12.59,7.92-8.19,0-13.53-5.66-13.53-14.35ZM706.87,134.54c-.22-6.1-1.76-7.75-6.87-7.75s-6.6,1.54-6.82,7.75h13.69Z"/>
        <path class="cls-1" d="M729.64,149.44v-36.3c0-.71.38-1.1,1.1-1.1h5.11c.61,0,1.04.22,1.32.77l16,28.32h.22v-27.99c0-.71.38-1.1,1.1-1.1h3.9c.71,0,1.1.38,1.1,1.1v36.3c0,.71-.38,1.1-1.1,1.1h-5.06c-.61,0-1.04-.22-1.32-.77l-16-28.43h-.27v28.1c0,.71-.38,1.1-1.1,1.1h-3.91c-.71,0-1.1-.38-1.1-1.1Z"/>
        <path class="cls-1" d="M764.79,142.46c0-5.39,4.56-8.41,11.44-8.41h4.95c1.21,0,1.65-.44,1.65-1.65v-.28c0-4.62-1.16-5.33-5.22-5.33-3.69,0-5.12.88-5.66,3.74-.17.71-.55,1.04-1.21,1.04h-3.79c-.77,0-1.21-.44-.99-1.21,1.32-4.78,5.94-8.19,11.66-8.19,6.98,0,11.55,4.51,11.55,11.27v16c0,.71-.38,1.1-1.1,1.1h-2.64c-.61,0-1.04-.33-1.21-.93l-1.1-3.41h-.22c-1.93,3.03-5,4.67-8.8,4.67-5.12,0-9.29-3.3-9.29-8.41ZM782.83,139.32v-1.26h-6.82c-4.29,0-5,.83-5,4.18s.88,4.18,4.67,4.18c4.95,0,7.15-2.2,7.15-7.09Z"/>
        <path class="cls-1" d="M801.31,149.66l-9.51-25.9c-.28-.77.11-1.26.88-1.26h4.4c.6,0,1.04.33,1.21.93l7.09,22.44h.22l7.15-22.44c.17-.6.61-.93,1.21-.93h4.12c.77,0,1.21.49.93,1.26l-9.57,25.9c-.22.55-.66.88-1.27.88h-5.61c-.6,0-1.04-.28-1.26-.88Z"/>
        <path class="cls-1" d="M821.11,136.52c0-8.63,5.33-14.35,13.53-14.35s13.2,5.44,13.2,14.35v.61c0,.71-.39,1.1-1.1,1.1h-19.08c.22,6.43,1.76,8.03,6.88,8.03,4.12,0,5.72-.77,6.6-3.46.22-.6.6-.93,1.26-.93h3.9c.77,0,1.21.44.94,1.1-1.81,4.78-6.49,7.92-12.59,7.92-8.19,0-13.53-5.66-13.53-14.35ZM841.4,134.54c-.22-6.1-1.76-7.75-6.87-7.75s-6.6,1.54-6.82,7.75h13.69Z"/>
        <path class="cls-1" d="M851.41,153.57c-.28-.77.16-1.26.93-1.26h4.02c.66,0,1.04.33,1.26.93.83,2.64,2.37,3.46,6.38,3.46,5.28,0,6.54-1.71,6.54-6.16v-4.84h-.22c-1.82,2.8-5,4.56-8.52,4.56-6.76,0-11.33-5.61-11.33-14.02s4.56-14.08,11.33-14.08c3.79,0,7.15,1.81,8.85,4.56h.17l1.1-3.35c.22-.61.66-.88,1.26-.88h2.64c.71,0,1.1.38,1.1,1.1v25.85c0,7.15-5.66,11.88-12.92,11.88-6.05,0-10.72-2.97-12.59-7.75ZM870.88,136.24c0-7.59-1.43-9.46-6.98-9.46s-6.87,1.87-6.87,9.46,1.26,9.46,6.87,9.46,6.98-1.87,6.98-9.46Z"/>
        <path class="cls-1" d="M881.94,142.46c0-5.39,4.56-8.41,11.44-8.41h4.95c1.21,0,1.65-.44,1.65-1.65v-.28c0-4.62-1.16-5.33-5.22-5.33-3.68,0-5.11.88-5.66,3.74-.17.71-.55,1.04-1.21,1.04h-3.79c-.77,0-1.21-.44-.99-1.21,1.32-4.78,5.94-8.19,11.66-8.19,6.98,0,11.55,4.51,11.55,11.27v16c0,.71-.38,1.1-1.1,1.1h-2.64c-.6,0-1.04-.33-1.21-.93l-1.1-3.41h-.22c-1.92,3.03-5,4.67-8.8,4.67-5.11,0-9.29-3.3-9.29-8.41ZM899.97,139.32v-1.26h-6.82c-4.29,0-5,.83-5,4.18s.88,4.18,4.67,4.18c4.95,0,7.15-2.2,7.15-7.09Z"/>
        <path class="cls-1" d="M910.1,136.52c0-8.58,5.33-14.35,13.42-14.35,6.32,0,11,3.63,12.15,8.91.11.77-.33,1.21-1.04,1.21h-3.91c-.66,0-1.1-.33-1.21-1.04-.6-3.46-1.92-4.45-5.94-4.45-5.66,0-6.93,1.87-6.93,9.73s1.32,9.73,6.87,9.73c4.07,0,5.55-.99,6.27-4.46.11-.66.49-.99,1.15-.99h3.96c.77,0,1.16.44.99,1.1-1.32,5.33-6.1,8.96-12.32,8.96-8.14,0-13.47-5.72-13.47-14.35Z"/>
        <path class="cls-1" d="M939.85,114.52c0-2.86.66-3.46,3.74-3.46s3.85.6,3.85,3.46-.71,3.46-3.85,3.46-3.74-.6-3.74-3.46ZM940.46,149.44v-25.85c0-.71.39-1.1,1.1-1.1h4.18c.71,0,1.1.38,1.1,1.1v25.85c0,.71-.39,1.1-1.1,1.1h-4.18c-.71,0-1.1-.38-1.1-1.1Z"/>
        <path class="cls-1" d="M951.18,136.52c0-8.58,5.39-14.35,13.42-14.35s13.42,5.77,13.42,14.35-5.39,14.35-13.42,14.35-13.42-5.72-13.42-14.35ZM971.47,136.52c0-7.86-1.32-9.73-6.87-9.73s-6.88,1.87-6.88,9.73,1.32,9.73,6.88,9.73,6.87-1.92,6.87-9.73ZM961.74,117.05c1.7-1.98,3.13-4.07,4.12-6.27.28-.55.71-.83,1.32-.83h4.51c.88,0,1.26.55.82,1.32-1.76,2.86-4.12,5.61-8.08,8.41-.55.38-1.04.38-1.54-.11l-1.04-.99c-.5-.44-.55-.99-.11-1.54Z"/>
        <path class="cls-1" d="M982.37,149.44v-25.85c0-.71.38-1.1,1.1-1.1h2.64c.6,0,1.04.33,1.26.88l1.04,2.75h.22c2.03-2.64,4.84-3.96,8.36-3.96,6.05,0,9.46,4.56,9.46,12.7v14.57c0,.71-.38,1.1-1.1,1.1h-4.12c-.71,0-1.1-.38-1.1-1.1v-17.43c0-4.23-1.1-5.22-5.5-5.22-4.89,0-5.88.88-5.88,5.22v17.43c0,.71-.38,1.1-1.1,1.1h-4.18c-.71,0-1.1-.38-1.1-1.1Z"/>
      </g>
    </g>
  </g>
</svg>