<?xml version="1.0" encoding="UTF-8"?>
<svg id="Capa_2" data-name="Capa 2" xmlns="http://www.w3.org/2000/svg" viewBox="0 0 801 139.78">
  <defs>
    <style>
      .cls-1 {
        fill: #003746;
      }

      .cls-2 {
        fill: none;
        stroke: #fff;
        stroke-linecap: round;
        stroke-linejoin: round;
        stroke-width: 4px;
      }

      .cls-3 {
        fill: #fff;
        stroke: #601636;
        stroke-miterlimit: 10;
      }

      .cls-4 {
        fill: #ff1b44;
      }
    </style>
  </defs>
  <g id="Capa_1-2" data-name="Capa 1">
    <g id="_NOPROCESS_S08_02_NB">
      <g>
        <path class="cls-3" d="M782.04,88.35s-.01,0-.02,0h-101.83c-14.69,0-26.64-11.95-26.64-26.64V18.97c0-10.19-8.29-18.47-18.47-18.47H18.97C8.79.5.5,8.79.5,18.97v28.36c0,10.18,8.29,18.47,18.47,18.47h101.83c14.69,0,26.64,11.95,26.64,26.64v28.36c0,10.18,8.29,18.47,18.47,18.47h616.12c10.19,0,18.47-8.29,18.47-18.47v-13.99c0-10.18-8.28-18.46-18.46-18.47Z"/>
        <path class="cls-4" d="M800.5,18.97c0-10.18-8.29-18.47-18.47-18.47h-101.83c-10.19,0-18.47,8.29-18.47,18.47v42.74c0,10.18,8.29,18.47,18.47,18.47h101.83s.01,0,.02,0c10.18,0,18.46-8.29,18.46-18.47V18.97Z"/>
        <path class="cls-1" d="M18.97,73.97h101.83c10.19,0,18.47,8.28,18.47,18.47v28.36c0,10.2-8.28,18.47-18.47,18.47H18.97c-10.19,0-18.47-8.28-18.47-18.47v-28.36c0-10.19,8.28-18.47,18.47-18.47Z"/>
        <g>
          <path class="cls-2" d="M730.84,68.2h-13.83c-3.49,0-6.33-2.83-6.33-6.33V18.81c0-3.49,2.83-6.33,6.33-6.33h28.2c3.49,0,6.33,2.83,6.33,6.33v32.31c0,.23-.1.44-.28.58l-19.94,16.32c-.14.11-.3.17-.48.17h0Z"/>
          <path class="cls-2" d="M731.11,68.2v-10.69c0-3.33,2.7-6.02,6.02-6.02h14.4l-20.43,16.71Z"/>
          <g>
            <line class="cls-2" x1="719.76" y1="22.68" x2="742.46" y2="22.68"/>
            <line class="cls-2" x1="719.76" y1="32.43" x2="742.46" y2="32.43"/>
            <line class="cls-2" x1="719.76" y1="42.19" x2="731.11" y2="42.19"/>
          </g>
        </g>
      </g>
      <g>
        <path class="cls-1" d="M327.47,83.3v-28.18h-8.78c-.62,0-.96-.34-.96-.96v-2.54c0-.62.34-.96.96-.96h23.19c.62,0,.96.34.96.96v2.54c0,.62-.34.96-.96.96h-8.79v28.18c0,.62-.34.96-.96.96h-3.7c-.62,0-.96-.34-.96-.96Z"/>
        <path class="cls-1" d="M340.05,72.02c0-7.54,4.66-12.53,11.81-12.53s11.52,4.75,11.52,12.53v.53c0,.62-.34.96-.96.96h-16.66c.19,5.62,1.54,7.01,6,7.01,3.6,0,4.99-.67,5.76-3.02.19-.53.53-.82,1.1-.82h3.41c.67,0,1.06.38.82.96-1.58,4.18-5.66,6.91-10.99,6.91-7.15,0-11.81-4.94-11.81-12.53ZM357.76,70.3c-.19-5.33-1.54-6.77-6-6.77s-5.76,1.34-5.95,6.77h11.95Z"/>
        <path class="cls-1" d="M367.16,83.3v-22.56c0-.62.34-.96.96-.96h2.3c.53,0,.91.29,1.1.77l.91,2.4h.19c1.73-2.3,4.08-3.46,7.1-3.46,2.83,0,4.9,1.06,6.62,3.46h.14c2.16-2.45,4.61-3.46,7.73-3.46,5.86,0,8.64,3.89,8.64,11.09v12.72c0,.62-.34.96-.96.96h-3.6c-.62,0-.96-.34-.96-.96v-15.22c0-3.7-.91-4.56-4.61-4.56-4.08,0-4.94.77-4.94,4.56v15.22c0,.62-.34.96-.96.96h-3.6c-.62,0-.96-.34-.96-.96v-15.22c0-3.7-.91-4.56-4.61-4.56-4.08,0-4.94.77-4.94,4.56v15.22c0,.62-.34.96-.96.96h-3.65c-.62,0-.96-.34-.96-.96Z"/>
        <path class="cls-1" d="M406.81,77.21c0-4.7,3.98-7.35,9.99-7.35h4.32c1.06,0,1.44-.38,1.44-1.44v-.24c0-4.03-1.01-4.66-4.56-4.66-3.22,0-4.46.77-4.94,3.26-.14.62-.48.91-1.06.91h-3.31c-.67,0-1.06-.38-.86-1.06,1.15-4.18,5.18-7.15,10.18-7.15,6.1,0,10.08,3.94,10.08,9.84v13.97c0,.62-.34.96-.96.96h-2.3c-.53,0-.91-.29-1.06-.82l-.96-2.98h-.19c-1.68,2.64-4.37,4.08-7.68,4.08-4.46,0-8.11-2.88-8.11-7.34ZM422.56,74.47v-1.1h-5.95c-3.74,0-4.37.72-4.37,3.65s.77,3.65,4.08,3.65c4.32,0,6.24-1.92,6.24-6.19Z"/>
        <path class="cls-1" d="M432.88,83.3v-22.56c0-.62.34-.96.96-.96h2.3c.53,0,.91.29,1.06.82l.96,3.12h.19c1.06-2.26,3.36-3.94,7.34-4.18.67-.05,1.01.29,1.01.91v3.12c0,.62-.34.96-.96.96h-2.11c-4.37,0-5.18,1.25-5.18,5.09v13.68c0,.62-.34.96-.96.96h-3.65c-.62,0-.96-.34-.96-.96Z"/>
        <path class="cls-1" d="M449.87,52.82c0-2.5.58-3.02,3.26-3.02s3.36.53,3.36,3.02-.62,3.02-3.36,3.02-3.26-.53-3.26-3.02ZM450.4,83.3v-22.56c0-.62.34-.96.96-.96h3.65c.62,0,.96.34.96.96v22.56c0,.62-.34.96-.96.96h-3.65c-.62,0-.96-.34-.96-.96Z"/>
        <path class="cls-1" d="M459.76,72.02c0-7.49,4.7-12.53,11.71-12.53s11.71,5.04,11.71,12.53-4.7,12.53-11.71,12.53-11.71-4.99-11.71-12.53ZM477.47,72.02c0-6.86-1.15-8.5-6-8.5s-6,1.63-6,8.5,1.15,8.5,6,8.5,6-1.68,6-8.5Z"/>
      </g>
    </g>
  </g>
</svg>