<?xml version="1.0" encoding="UTF-8"?>
<svg id="Capa_2" data-name="Capa 2" xmlns="http://www.w3.org/2000/svg" viewBox="0 0 1300.69 412.51">
  <defs>
    <style>
      .cls-1 {
        fill: #fff;
      }

      .cls-2 {
        fill: #003746;
      }

      .cls-3 {
        fill: #ff1b44;
      }
    </style>
  </defs>
  <g id="Capa_1-2" data-name="Capa 1">
    <g>
      <g>
        <path class="cls-2" d="M1299.77,206.58v-1.6H307.13c-15.68,0-28.38-12.71-28.38-28.38v-29.26c0-15.94-12.92-28.86-28.86-28.86H.46V0h1300.23l-.93,204.98"/>
        <path class="cls-3" d="M1299.77,204.98H307.13c-15.68,0-28.38-12.71-28.38-28.38v-29.26c0-15.94-12.92-28.86-28.86-28.86H.46V0l-.46,327.05h51.12c11.14,0,20.18,9.03,20.18,20.18v9.5c0,11.14,9.03,20.18,20.18,20.18h414.26c11.14,0,20.18-9.03,20.18-20.18v-9.5c0-11.14,9.03-20.18,20.18-20.18h529.4c11.14,0,20.18,9.03,20.18,20.18v45.11c0,11.14,9.03,20.18,20.18,20.18h183.91v-207.53Z"/>
      </g>
      <g>
        <path class="cls-1" d="M522.29,144.61v-36.3c0-.71.38-1.1,1.1-1.1h21.89c.71,0,1.1.38,1.1,1.1v2.92c0,.71-.39,1.1-1.1,1.1h-16.5v11.38h15.45c.71,0,1.1.38,1.1,1.1v2.92c0,.71-.39,1.1-1.1,1.1h-15.45v11.77h16.94c.71,0,1.1.38,1.1,1.1v2.92c0,.71-.39,1.1-1.1,1.1h-22.33c-.71,0-1.1-.38-1.1-1.1Z"/>
        <path class="cls-1" d="M550.89,138.07c-.16-.71.28-1.16.99-1.16h3.52c.66,0,1.04.38,1.16,1.04.5,3.13,1.59,3.74,5.28,3.74s4.73-.77,4.73-3.74c0-2.36-.71-3.02-4.12-3.63l-3.02-.6c-5.66-1.1-8.03-3.52-8.03-8.14s4.34-8.25,10.17-8.25c5.39,0,9.18,2.8,10.12,7.31.17.71-.33,1.16-1.04,1.16h-3.46c-.66,0-1.04-.38-1.16-1.04-.44-2.75-1.32-3.08-4.4-3.08-3.41,0-4.23.66-4.23,3.41,0,2.53.66,3.19,4.23,3.85l3.13.6c5.72,1.16,7.75,3.3,7.75,8.03,0,5.22-3.96,8.47-10.45,8.47-6.1,0-10.34-3.02-11.16-7.97Z"/>
        <path class="cls-1" d="M580.26,135.76v-13.53h-3.96c-.71,0-1.1-.39-1.1-1.1v-2.36c0-.71.38-1.1,1.1-1.1h3.96v-5.99c0-.66.33-1.04.99-1.21l4.12-.83c.71-.17,1.21.17,1.21.93v7.09h5.94c.71,0,1.1.38,1.1,1.1v2.36c0,.71-.38,1.1-1.1,1.1h-5.94v15.95c0,2.97.33,3.25,3.52,3.25h2.37c.71,0,1.1.38,1.1,1.1v1.92c0,.6-.28,1.04-.88,1.21-1.04.27-2.2.38-3.19.38-5.99,0-9.24-4.34-9.24-10.28Z"/>
        <path class="cls-1" d="M598.3,144.61v-25.85c0-.71.38-1.1,1.1-1.1h2.64c.6,0,1.04.33,1.21.93l1.1,3.57h.22c1.21-2.58,3.85-4.51,8.41-4.78.77-.05,1.16.33,1.16,1.04v3.57c0,.71-.38,1.1-1.1,1.1h-2.42c-5,0-5.94,1.43-5.94,5.83v15.67c0,.71-.38,1.1-1.1,1.1h-4.18c-.71,0-1.1-.38-1.1-1.1Z"/>
        <path class="cls-1" d="M641.91,118.77v25.85c0,.71-.38,1.1-1.1,1.1h-2.64c-.61,0-1.04-.33-1.26-.88l-1.04-2.75h-.22c-2.04,2.64-4.84,3.96-8.36,3.96-6.05,0-9.46-4.56-9.46-12.7v-14.57c0-.71.38-1.1,1.1-1.1h4.12c.71,0,1.1.38,1.1,1.1v17.43c0,4.23,1.1,5.22,5.5,5.22,4.89,0,5.88-.88,5.88-5.22v-17.43c0-.71.39-1.1,1.1-1.1h4.18c.72,0,1.1.38,1.1,1.1Z"/>
        <path class="cls-1" d="M646.26,131.69c0-8.58,5.33-14.35,13.42-14.35,6.32,0,11,3.63,12.15,8.91.11.77-.33,1.21-1.04,1.21h-3.91c-.66,0-1.1-.33-1.21-1.04-.6-3.46-1.92-4.45-5.94-4.45-5.66,0-6.93,1.87-6.93,9.73s1.32,9.73,6.87,9.73c4.07,0,5.55-.99,6.27-4.46.11-.66.49-.99,1.15-.99h3.96c.77,0,1.16.44.99,1.1-1.32,5.33-6.1,8.96-12.32,8.96-8.14,0-13.47-5.72-13.47-14.35Z"/>
        <path class="cls-1" d="M679.59,135.76v-13.53h-3.96c-.71,0-1.1-.39-1.1-1.1v-2.36c0-.71.38-1.1,1.1-1.1h3.96v-5.99c0-.66.33-1.04.99-1.21l4.12-.83c.71-.17,1.21.17,1.21.93v7.09h5.94c.72,0,1.1.38,1.1,1.1v2.36c0,.71-.38,1.1-1.1,1.1h-5.94v15.95c0,2.97.33,3.25,3.52,3.25h2.36c.71,0,1.1.38,1.1,1.1v1.92c0,.6-.27,1.04-.88,1.21-1.04.27-2.2.38-3.19.38-5.99,0-9.24-4.34-9.24-10.28Z"/>
        <path class="cls-1" d="M721.17,118.77v25.85c0,.71-.38,1.1-1.1,1.1h-2.64c-.61,0-1.04-.33-1.26-.88l-1.04-2.75h-.22c-2.04,2.64-4.84,3.96-8.36,3.96-6.05,0-9.46-4.56-9.46-12.7v-14.57c0-.71.38-1.1,1.1-1.1h4.12c.71,0,1.1.38,1.1,1.1v17.43c0,4.23,1.1,5.22,5.5,5.22,4.89,0,5.88-.88,5.88-5.22v-17.43c0-.71.39-1.1,1.1-1.1h4.18c.72,0,1.1.38,1.1,1.1Z"/>
        <path class="cls-1" d="M727.22,144.61v-25.85c0-.71.38-1.1,1.1-1.1h2.64c.6,0,1.04.33,1.21.93l1.1,3.57h.22c1.21-2.58,3.85-4.51,8.41-4.78.77-.05,1.16.33,1.16,1.04v3.57c0,.71-.38,1.1-1.1,1.1h-2.42c-5,0-5.94,1.43-5.94,5.83v15.67c0,.71-.38,1.1-1.1,1.1h-4.18c-.71,0-1.1-.38-1.1-1.1Z"/>
        <path class="cls-1" d="M744.65,137.63c0-5.39,4.56-8.41,11.44-8.41h4.95c1.21,0,1.65-.44,1.65-1.65v-.28c0-4.62-1.16-5.33-5.22-5.33-3.69,0-5.12.88-5.66,3.74-.17.71-.55,1.04-1.21,1.04h-3.79c-.77,0-1.21-.44-.99-1.21,1.32-4.78,5.94-8.19,11.66-8.19,6.98,0,11.55,4.51,11.55,11.27v16c0,.71-.38,1.1-1.1,1.1h-2.64c-.61,0-1.04-.33-1.21-.93l-1.1-3.41h-.22c-1.93,3.03-5,4.67-8.8,4.67-5.12,0-9.29-3.3-9.29-8.41ZM762.69,134.49v-1.26h-6.82c-4.29,0-5,.83-5,4.18s.88,4.18,4.67,4.18c4.95,0,7.15-2.2,7.15-7.09Z"/>
        <path class="cls-1" d="M789.26,135.76v-13.53h-3.96c-.71,0-1.1-.39-1.1-1.1v-2.36c0-.71.38-1.1,1.1-1.1h3.96v-5.99c0-.66.33-1.04.99-1.21l4.12-.83c.71-.17,1.21.17,1.21.93v7.09h5.94c.71,0,1.1.38,1.1,1.1v2.36c0,.71-.38,1.1-1.1,1.1h-5.94v15.95c0,2.97.33,3.25,3.52,3.25h2.37c.71,0,1.1.38,1.1,1.1v1.92c0,.6-.28,1.04-.88,1.21-1.04.27-2.2.38-3.19.38-5.99,0-9.24-4.34-9.24-10.28Z"/>
        <path class="cls-1" d="M804.6,131.69c0-8.63,5.33-14.35,13.53-14.35s13.2,5.44,13.2,14.35v.61c0,.71-.38,1.1-1.1,1.1h-19.08c.22,6.43,1.76,8.03,6.87,8.03,4.12,0,5.72-.77,6.6-3.46.22-.6.61-.93,1.27-.93h3.9c.77,0,1.21.44.93,1.1-1.82,4.78-6.49,7.92-12.59,7.92-8.19,0-13.53-5.66-13.53-14.35ZM824.89,129.71c-.22-6.1-1.76-7.75-6.88-7.75s-6.6,1.54-6.82,7.75h13.69Z"/>
        <path class="cls-1" d="M835.68,144.61v-25.85c0-.71.39-1.1,1.1-1.1h2.64c.61,0,1.04.33,1.26.88l1.04,2.75h.22c1.98-2.64,4.67-3.96,8.14-3.96,3.25,0,5.61,1.21,7.59,3.96h.16c2.47-2.8,5.28-3.96,8.85-3.96,6.71,0,9.9,4.45,9.9,12.7v14.57c0,.71-.38,1.1-1.1,1.1h-4.12c-.71,0-1.1-.38-1.1-1.1v-17.43c0-4.23-1.04-5.22-5.28-5.22-4.68,0-5.67.88-5.67,5.22v17.43c0,.71-.38,1.1-1.1,1.1h-4.12c-.71,0-1.1-.38-1.1-1.1v-17.43c0-4.23-1.04-5.22-5.28-5.22-4.67,0-5.66.88-5.66,5.22v17.43c0,.71-.39,1.1-1.1,1.1h-4.18c-.71,0-1.1-.38-1.1-1.1Z"/>
        <path class="cls-1" d="M881.11,137.63c0-5.39,4.56-8.41,11.44-8.41h4.95c1.21,0,1.65-.44,1.65-1.65v-.28c0-4.62-1.16-5.33-5.22-5.33-3.69,0-5.12.88-5.66,3.74-.17.71-.55,1.04-1.21,1.04h-3.79c-.77,0-1.21-.44-.99-1.21,1.32-4.78,5.94-8.19,11.66-8.19,6.98,0,11.55,4.51,11.55,11.27v16c0,.71-.38,1.1-1.1,1.1h-2.64c-.61,0-1.04-.33-1.21-.93l-1.1-3.41h-.22c-1.93,3.03-5,4.67-8.8,4.67-5.12,0-9.29-3.3-9.29-8.41ZM899.14,134.49v-1.26h-6.82c-4.29,0-5,.83-5,4.18s.88,4.18,4.67,4.18c4.95,0,7.15-2.2,7.15-7.09ZM891.06,112.22c1.7-1.98,3.13-4.07,4.12-6.27.28-.55.72-.83,1.32-.83h4.51c.88,0,1.26.55.82,1.32-1.76,2.86-4.12,5.61-8.08,8.41-.55.38-1.04.38-1.54-.11l-1.04-.99c-.5-.44-.55-.99-.11-1.54Z"/>
        <path class="cls-1" d="M913.72,135.76v-13.53h-3.96c-.71,0-1.1-.39-1.1-1.1v-2.36c0-.71.38-1.1,1.1-1.1h3.96v-5.99c0-.66.33-1.04.99-1.21l4.12-.83c.71-.17,1.21.17,1.21.93v7.09h5.94c.72,0,1.1.38,1.1,1.1v2.36c0,.71-.38,1.1-1.1,1.1h-5.94v15.95c0,2.97.33,3.25,3.52,3.25h2.36c.71,0,1.1.38,1.1,1.1v1.92c0,.6-.27,1.04-.88,1.21-1.04.27-2.2.38-3.19.38-5.99,0-9.24-4.34-9.24-10.28Z"/>
        <path class="cls-1" d="M931.15,109.69c0-2.86.66-3.46,3.74-3.46s3.85.6,3.85,3.46-.71,3.46-3.85,3.46-3.74-.6-3.74-3.46ZM931.76,144.61v-25.85c0-.71.38-1.1,1.1-1.1h4.18c.71,0,1.1.38,1.1,1.1v25.85c0,.71-.38,1.1-1.1,1.1h-4.18c-.71,0-1.1-.38-1.1-1.1Z"/>
        <path class="cls-1" d="M942.48,131.69c0-8.58,5.33-14.35,13.42-14.35,6.32,0,11,3.63,12.15,8.91.11.77-.33,1.21-1.04,1.21h-3.9c-.66,0-1.1-.33-1.21-1.04-.6-3.46-1.92-4.45-5.94-4.45-5.66,0-6.93,1.87-6.93,9.73s1.32,9.73,6.87,9.73c4.07,0,5.55-.99,6.27-4.46.11-.66.5-.99,1.16-.99h3.96c.77,0,1.15.44.99,1.1-1.32,5.33-6.1,8.96-12.32,8.96-8.14,0-13.47-5.72-13.47-14.35Z"/>
        <path class="cls-1" d="M971.8,137.63c0-5.39,4.56-8.41,11.44-8.41h4.95c1.21,0,1.65-.44,1.65-1.65v-.28c0-4.62-1.16-5.33-5.22-5.33-3.69,0-5.12.88-5.66,3.74-.17.71-.55,1.04-1.21,1.04h-3.79c-.77,0-1.21-.44-.99-1.21,1.32-4.78,5.94-8.19,11.66-8.19,6.98,0,11.55,4.51,11.55,11.27v16c0,.71-.38,1.1-1.1,1.1h-2.64c-.61,0-1.04-.33-1.21-.93l-1.1-3.41h-.22c-1.93,3.03-5,4.67-8.8,4.67-5.12,0-9.29-3.3-9.29-8.41ZM989.84,134.49v-1.26h-6.82c-4.29,0-5,.83-5,4.18s.88,4.18,4.67,4.18c4.95,0,7.15-2.2,7.15-7.09Z"/>
      </g>
    </g>
  </g>
</svg>