<?xml version="1.0" encoding="UTF-8"?>
<svg id="Capa_2" data-name="Capa 2" xmlns="http://www.w3.org/2000/svg" viewBox="0 0 1299.29 205.99">
  <defs>
    <style>
      .cls-1 {
        fill: #005162;
      }

      .cls-2 {
        fill: none;
        stroke: #6b0a36;
        stroke-miterlimit: 10;
      }

      .cls-3 {
        fill: #003746;
      }

      .cls-4 {
        fill: #ff1b44;
      }
    </style>
  </defs>
  <g id="Capa_1-2" data-name="Capa 1">
    <g>
      <g>
        <path class="cls-2" d="M155.69,135.37v-64.26c0-15.16,12.33-27.49,27.49-27.49h66.61c9.09,0,16.49-7.4,16.49-16.49v-10.13c0-9.09-7.4-16.49-16.49-16.49H16.99C7.9.5.5,7.9.5,16.99v118.38c0,9.1,7.4,16.49,16.49,16.49h122.2c9.09,0,16.49-7.4,16.49-16.49Z"/>
        <path class="cls-1" d="M1282.8,54.62h-178c-9.09,0-16.49,7.4-16.49,16.49v10.14c0,15.16-12.33,27.49-27.49,27.49h-10.14c-9.09,0-16.49,7.4-16.49,16.49v64.26c0,9.09,7.4,16.49,16.49,16.49h232.12c9.1,0,16.49-7.4,16.49-16.49v-118.38c0-9.09-7.4-16.49-16.49-16.49Z"/>
        <path class="cls-3" d="M734.7,108.74h-63.55c-13.26,0-24.36-9.44-26.93-21.96-.09-.45-.17-.9-.24-1.35-.14-.91-.23-1.83-.28-2.77-.02-.47-.04-.94-.04-1.41v-10.14c0-9.1-7.4-16.49-16.49-16.49H183.18c-1.14,0-2.25.12-3.32.34-7.51,1.54-13.17,8.2-13.17,16.16v118.38c0,9.1,7.4,16.49,16.49,16.49h551.52c9.09,0,16.49-7.4,16.49-16.49v-64.26c0-9.09-7.4-16.49-16.49-16.49Z"/>
        <path class="cls-4" d="M1060.81,97.75c7.96,0,14.62-5.67,16.16-13.17.22-1.07.34-2.18.34-3.32V16.99c0-9.09-7.4-16.49-16.49-16.49h-389.67c-9.09,0-16.49,7.4-16.49,16.49v64.26c0,7.96,5.67,14.62,13.17,16.16,1.07.22,2.18.34,3.32.34h389.67Z"/>
      </g>
      <rect class="cls-2" x="762.31" y="109.49" width="260.72" height="71.87" rx="14.23" ry="14.23" transform="translate(1785.34 290.84) rotate(180)"/>
    </g>
  </g>
</svg>